<?xml version="1.0" encoding="utf-8" standalone="no"?>
<!DOCTYPE svg PUBLIC "-//W3C//DTD SVG 1.1//EN"
  "http://www.w3.org/Graphics/SVG/1.1/DTD/svg11.dtd">
<svg xmlns:xlink="http://www.w3.org/1999/xlink" width="1000.198125pt" height="330.541644pt" viewBox="0 0 1000.198125 330.541644" xmlns="http://www.w3.org/2000/svg" version="1.1">
 <metadata>
  <rdf:RDF xmlns:dc="http://purl.org/dc/elements/1.1/" xmlns:cc="http://creativecommons.org/ns#" xmlns:rdf="http://www.w3.org/1999/02/22-rdf-syntax-ns#">
   <cc:Work>
    <dc:type rdf:resource="http://purl.org/dc/dcmitype/StillImage"/>
    <dc:date>2025-01-27T16:07:10.219323</dc:date>
    <dc:format>image/svg+xml</dc:format>
    <dc:creator>
     <cc:Agent>
      <dc:title>Matplotlib v3.6.2, https://matplotlib.org/</dc:title>
     </cc:Agent>
    </dc:creator>
   </cc:Work>
  </rdf:RDF>
 </metadata>
 <defs>
  <style type="text/css">*{stroke-linejoin: round; stroke-linecap: butt}</style>
 </defs>
 <g id="figure_1">
  <g id="axes_1">
   <g id="patch_1">
    <path d="M 53.328125 273.99006 
L 992.998125 273.99006 
L 992.998125 31.48286 
L 53.328125 31.48286 
z
" style="fill: #ffffff"/>
   </g>
   <g id="matplotlib.axis_1">
    <g id="xtick_1">
     <g id="text_1">
      <!-- 0 -->
      <g transform="translate(84.952943 287.06881) scale(0.08 -0.08)">
       <defs>
        <path id="DejaVuSans-30" d="M 2034 4250 
Q 1547 4250 1301 3770 
Q 1056 3291 1056 2328 
Q 1056 1369 1301 889 
Q 1547 409 2034 409 
Q 2525 409 2770 889 
Q 3016 1369 3016 2328 
Q 3016 3291 2770 3770 
Q 2525 4250 2034 4250 
z
M 2034 4750 
Q 2819 4750 3233 4129 
Q 3647 3509 3647 2328 
Q 3647 1150 3233 529 
Q 2819 -91 2034 -91 
Q 1250 -91 836 529 
Q 422 1150 422 2328 
Q 422 3509 836 4129 
Q 1250 4750 2034 4750 
z
" transform="scale(0.015625)"/>
       </defs>
       <use xlink:href="#DejaVuSans-30"/>
      </g>
     </g>
    </g>
    <g id="xtick_2">
     <g id="text_2">
      <!-- 20 -->
      <g transform="translate(253.257034 287.06881) scale(0.08 -0.08)">
       <defs>
        <path id="DejaVuSans-32" d="M 1228 531 
L 3431 531 
L 3431 0 
L 469 0 
L 469 531 
Q 828 903 1448 1529 
Q 2069 2156 2228 2338 
Q 2531 2678 2651 2914 
Q 2772 3150 2772 3378 
Q 2772 3750 2511 3984 
Q 2250 4219 1831 4219 
Q 1534 4219 1204 4116 
Q 875 4013 500 3803 
L 500 4441 
Q 881 4594 1212 4672 
Q 1544 4750 1819 4750 
Q 2544 4750 2975 4387 
Q 3406 4025 3406 3419 
Q 3406 3131 3298 2873 
Q 3191 2616 2906 2266 
Q 2828 2175 2409 1742 
Q 1991 1309 1228 531 
z
" transform="scale(0.015625)"/>
       </defs>
       <use xlink:href="#DejaVuSans-32"/>
       <use xlink:href="#DejaVuSans-30" x="63.623047"/>
      </g>
     </g>
    </g>
    <g id="xtick_3">
     <g id="text_3">
      <!-- 40 -->
      <g transform="translate(424.106125 287.06881) scale(0.08 -0.08)">
       <defs>
        <path id="DejaVuSans-34" d="M 2419 4116 
L 825 1625 
L 2419 1625 
L 2419 4116 
z
M 2253 4666 
L 3047 4666 
L 3047 1625 
L 3713 1625 
L 3713 1100 
L 3047 1100 
L 3047 0 
L 2419 0 
L 2419 1100 
L 313 1100 
L 313 1709 
L 2253 4666 
z
" transform="scale(0.015625)"/>
       </defs>
       <use xlink:href="#DejaVuSans-34"/>
       <use xlink:href="#DejaVuSans-30" x="63.623047"/>
      </g>
     </g>
    </g>
    <g id="xtick_4">
     <g id="text_4">
      <!-- 60 -->
      <g transform="translate(594.955216 287.06881) scale(0.08 -0.08)">
       <defs>
        <path id="DejaVuSans-36" d="M 2113 2584 
Q 1688 2584 1439 2293 
Q 1191 2003 1191 1497 
Q 1191 994 1439 701 
Q 1688 409 2113 409 
Q 2538 409 2786 701 
Q 3034 994 3034 1497 
Q 3034 2003 2786 2293 
Q 2538 2584 2113 2584 
z
M 3366 4563 
L 3366 3988 
Q 3128 4100 2886 4159 
Q 2644 4219 2406 4219 
Q 1781 4219 1451 3797 
Q 1122 3375 1075 2522 
Q 1259 2794 1537 2939 
Q 1816 3084 2150 3084 
Q 2853 3084 3261 2657 
Q 3669 2231 3669 1497 
Q 3669 778 3244 343 
Q 2819 -91 2113 -91 
Q 1303 -91 875 529 
Q 447 1150 447 2328 
Q 447 3434 972 4092 
Q 1497 4750 2381 4750 
Q 2619 4750 2861 4703 
Q 3103 4656 3366 4563 
z
" transform="scale(0.015625)"/>
       </defs>
       <use xlink:href="#DejaVuSans-36"/>
       <use xlink:href="#DejaVuSans-30" x="63.623047"/>
      </g>
     </g>
    </g>
    <g id="xtick_5">
     <g id="text_5">
      <!-- 80 -->
      <g transform="translate(765.804307 287.06881) scale(0.08 -0.08)">
       <defs>
        <path id="DejaVuSans-38" d="M 2034 2216 
Q 1584 2216 1326 1975 
Q 1069 1734 1069 1313 
Q 1069 891 1326 650 
Q 1584 409 2034 409 
Q 2484 409 2743 651 
Q 3003 894 3003 1313 
Q 3003 1734 2745 1975 
Q 2488 2216 2034 2216 
z
M 1403 2484 
Q 997 2584 770 2862 
Q 544 3141 544 3541 
Q 544 4100 942 4425 
Q 1341 4750 2034 4750 
Q 2731 4750 3128 4425 
Q 3525 4100 3525 3541 
Q 3525 3141 3298 2862 
Q 3072 2584 2669 2484 
Q 3125 2378 3379 2068 
Q 3634 1759 3634 1313 
Q 3634 634 3220 271 
Q 2806 -91 2034 -91 
Q 1263 -91 848 271 
Q 434 634 434 1313 
Q 434 1759 690 2068 
Q 947 2378 1403 2484 
z
M 1172 3481 
Q 1172 3119 1398 2916 
Q 1625 2713 2034 2713 
Q 2441 2713 2670 2916 
Q 2900 3119 2900 3481 
Q 2900 3844 2670 4047 
Q 2441 4250 2034 4250 
Q 1625 4250 1398 4047 
Q 1172 3844 1172 3481 
z
" transform="scale(0.015625)"/>
       </defs>
       <use xlink:href="#DejaVuSans-38"/>
       <use xlink:href="#DejaVuSans-30" x="63.623047"/>
      </g>
     </g>
    </g>
    <g id="xtick_6">
     <g id="text_6">
      <!-- 100 -->
      <g transform="translate(934.108398 287.06881) scale(0.08 -0.08)">
       <defs>
        <path id="DejaVuSans-31" d="M 794 531 
L 1825 531 
L 1825 4091 
L 703 3866 
L 703 4441 
L 1819 4666 
L 2450 4666 
L 2450 531 
L 3481 531 
L 3481 0 
L 794 0 
L 794 531 
z
" transform="scale(0.015625)"/>
       </defs>
       <use xlink:href="#DejaVuSans-31"/>
       <use xlink:href="#DejaVuSans-30" x="63.623047"/>
       <use xlink:href="#DejaVuSans-30" x="127.246094"/>
      </g>
     </g>
    </g>
    <g id="text_7">
     <!-- Length Trimmed (bp) -->
     <g transform="translate(470.735781 300.330997) scale(0.1 -0.1)">
      <defs>
       <path id="DejaVuSans-4c" d="M 628 4666 
L 1259 4666 
L 1259 531 
L 3531 531 
L 3531 0 
L 628 0 
L 628 4666 
z
" transform="scale(0.015625)"/>
       <path id="DejaVuSans-65" d="M 3597 1894 
L 3597 1613 
L 953 1613 
Q 991 1019 1311 708 
Q 1631 397 2203 397 
Q 2534 397 2845 478 
Q 3156 559 3463 722 
L 3463 178 
Q 3153 47 2828 -22 
Q 2503 -91 2169 -91 
Q 1331 -91 842 396 
Q 353 884 353 1716 
Q 353 2575 817 3079 
Q 1281 3584 2069 3584 
Q 2775 3584 3186 3129 
Q 3597 2675 3597 1894 
z
M 3022 2063 
Q 3016 2534 2758 2815 
Q 2500 3097 2075 3097 
Q 1594 3097 1305 2825 
Q 1016 2553 972 2059 
L 3022 2063 
z
" transform="scale(0.015625)"/>
       <path id="DejaVuSans-6e" d="M 3513 2113 
L 3513 0 
L 2938 0 
L 2938 2094 
Q 2938 2591 2744 2837 
Q 2550 3084 2163 3084 
Q 1697 3084 1428 2787 
Q 1159 2491 1159 1978 
L 1159 0 
L 581 0 
L 581 3500 
L 1159 3500 
L 1159 2956 
Q 1366 3272 1645 3428 
Q 1925 3584 2291 3584 
Q 2894 3584 3203 3211 
Q 3513 2838 3513 2113 
z
" transform="scale(0.015625)"/>
       <path id="DejaVuSans-67" d="M 2906 1791 
Q 2906 2416 2648 2759 
Q 2391 3103 1925 3103 
Q 1463 3103 1205 2759 
Q 947 2416 947 1791 
Q 947 1169 1205 825 
Q 1463 481 1925 481 
Q 2391 481 2648 825 
Q 2906 1169 2906 1791 
z
M 3481 434 
Q 3481 -459 3084 -895 
Q 2688 -1331 1869 -1331 
Q 1566 -1331 1297 -1286 
Q 1028 -1241 775 -1147 
L 775 -588 
Q 1028 -725 1275 -790 
Q 1522 -856 1778 -856 
Q 2344 -856 2625 -561 
Q 2906 -266 2906 331 
L 2906 616 
Q 2728 306 2450 153 
Q 2172 0 1784 0 
Q 1141 0 747 490 
Q 353 981 353 1791 
Q 353 2603 747 3093 
Q 1141 3584 1784 3584 
Q 2172 3584 2450 3431 
Q 2728 3278 2906 2969 
L 2906 3500 
L 3481 3500 
L 3481 434 
z
" transform="scale(0.015625)"/>
       <path id="DejaVuSans-74" d="M 1172 4494 
L 1172 3500 
L 2356 3500 
L 2356 3053 
L 1172 3053 
L 1172 1153 
Q 1172 725 1289 603 
Q 1406 481 1766 481 
L 2356 481 
L 2356 0 
L 1766 0 
Q 1100 0 847 248 
Q 594 497 594 1153 
L 594 3053 
L 172 3053 
L 172 3500 
L 594 3500 
L 594 4494 
L 1172 4494 
z
" transform="scale(0.015625)"/>
       <path id="DejaVuSans-68" d="M 3513 2113 
L 3513 0 
L 2938 0 
L 2938 2094 
Q 2938 2591 2744 2837 
Q 2550 3084 2163 3084 
Q 1697 3084 1428 2787 
Q 1159 2491 1159 1978 
L 1159 0 
L 581 0 
L 581 4863 
L 1159 4863 
L 1159 2956 
Q 1366 3272 1645 3428 
Q 1925 3584 2291 3584 
Q 2894 3584 3203 3211 
Q 3513 2838 3513 2113 
z
" transform="scale(0.015625)"/>
       <path id="DejaVuSans-20" transform="scale(0.015625)"/>
       <path id="DejaVuSans-54" d="M -19 4666 
L 3928 4666 
L 3928 4134 
L 2272 4134 
L 2272 0 
L 1638 0 
L 1638 4134 
L -19 4134 
L -19 4666 
z
" transform="scale(0.015625)"/>
       <path id="DejaVuSans-72" d="M 2631 2963 
Q 2534 3019 2420 3045 
Q 2306 3072 2169 3072 
Q 1681 3072 1420 2755 
Q 1159 2438 1159 1844 
L 1159 0 
L 581 0 
L 581 3500 
L 1159 3500 
L 1159 2956 
Q 1341 3275 1631 3429 
Q 1922 3584 2338 3584 
Q 2397 3584 2469 3576 
Q 2541 3569 2628 3553 
L 2631 2963 
z
" transform="scale(0.015625)"/>
       <path id="DejaVuSans-69" d="M 603 3500 
L 1178 3500 
L 1178 0 
L 603 0 
L 603 3500 
z
M 603 4863 
L 1178 4863 
L 1178 4134 
L 603 4134 
L 603 4863 
z
" transform="scale(0.015625)"/>
       <path id="DejaVuSans-6d" d="M 3328 2828 
Q 3544 3216 3844 3400 
Q 4144 3584 4550 3584 
Q 5097 3584 5394 3201 
Q 5691 2819 5691 2113 
L 5691 0 
L 5113 0 
L 5113 2094 
Q 5113 2597 4934 2840 
Q 4756 3084 4391 3084 
Q 3944 3084 3684 2787 
Q 3425 2491 3425 1978 
L 3425 0 
L 2847 0 
L 2847 2094 
Q 2847 2600 2669 2842 
Q 2491 3084 2119 3084 
Q 1678 3084 1418 2786 
Q 1159 2488 1159 1978 
L 1159 0 
L 581 0 
L 581 3500 
L 1159 3500 
L 1159 2956 
Q 1356 3278 1631 3431 
Q 1906 3584 2284 3584 
Q 2666 3584 2933 3390 
Q 3200 3197 3328 2828 
z
" transform="scale(0.015625)"/>
       <path id="DejaVuSans-64" d="M 2906 2969 
L 2906 4863 
L 3481 4863 
L 3481 0 
L 2906 0 
L 2906 525 
Q 2725 213 2448 61 
Q 2172 -91 1784 -91 
Q 1150 -91 751 415 
Q 353 922 353 1747 
Q 353 2572 751 3078 
Q 1150 3584 1784 3584 
Q 2172 3584 2448 3432 
Q 2725 3281 2906 2969 
z
M 947 1747 
Q 947 1113 1208 752 
Q 1469 391 1925 391 
Q 2381 391 2643 752 
Q 2906 1113 2906 1747 
Q 2906 2381 2643 2742 
Q 2381 3103 1925 3103 
Q 1469 3103 1208 2742 
Q 947 2381 947 1747 
z
" transform="scale(0.015625)"/>
       <path id="DejaVuSans-28" d="M 1984 4856 
Q 1566 4138 1362 3434 
Q 1159 2731 1159 2009 
Q 1159 1288 1364 580 
Q 1569 -128 1984 -844 
L 1484 -844 
Q 1016 -109 783 600 
Q 550 1309 550 2009 
Q 550 2706 781 3412 
Q 1013 4119 1484 4856 
L 1984 4856 
z
" transform="scale(0.015625)"/>
       <path id="DejaVuSans-62" d="M 3116 1747 
Q 3116 2381 2855 2742 
Q 2594 3103 2138 3103 
Q 1681 3103 1420 2742 
Q 1159 2381 1159 1747 
Q 1159 1113 1420 752 
Q 1681 391 2138 391 
Q 2594 391 2855 752 
Q 3116 1113 3116 1747 
z
M 1159 2969 
Q 1341 3281 1617 3432 
Q 1894 3584 2278 3584 
Q 2916 3584 3314 3078 
Q 3713 2572 3713 1747 
Q 3713 922 3314 415 
Q 2916 -91 2278 -91 
Q 1894 -91 1617 61 
Q 1341 213 1159 525 
L 1159 0 
L 581 0 
L 581 4863 
L 1159 4863 
L 1159 2969 
z
" transform="scale(0.015625)"/>
       <path id="DejaVuSans-70" d="M 1159 525 
L 1159 -1331 
L 581 -1331 
L 581 3500 
L 1159 3500 
L 1159 2969 
Q 1341 3281 1617 3432 
Q 1894 3584 2278 3584 
Q 2916 3584 3314 3078 
Q 3713 2572 3713 1747 
Q 3713 922 3314 415 
Q 2916 -91 2278 -91 
Q 1894 -91 1617 61 
Q 1341 213 1159 525 
z
M 3116 1747 
Q 3116 2381 2855 2742 
Q 2594 3103 2138 3103 
Q 1681 3103 1420 2742 
Q 1159 2381 1159 1747 
Q 1159 1113 1420 752 
Q 1681 391 2138 391 
Q 2594 391 2855 752 
Q 3116 1113 3116 1747 
z
" transform="scale(0.015625)"/>
       <path id="DejaVuSans-29" d="M 513 4856 
L 1013 4856 
Q 1481 4119 1714 3412 
Q 1947 2706 1947 2009 
Q 1947 1309 1714 600 
Q 1481 -109 1013 -844 
L 513 -844 
Q 928 -128 1133 580 
Q 1338 1288 1338 2009 
Q 1338 2731 1133 3434 
Q 928 4138 513 4856 
z
" transform="scale(0.015625)"/>
      </defs>
      <use xlink:href="#DejaVuSans-4c"/>
      <use xlink:href="#DejaVuSans-65" x="53.962891"/>
      <use xlink:href="#DejaVuSans-6e" x="115.486328"/>
      <use xlink:href="#DejaVuSans-67" x="178.865234"/>
      <use xlink:href="#DejaVuSans-74" x="242.341797"/>
      <use xlink:href="#DejaVuSans-68" x="281.550781"/>
      <use xlink:href="#DejaVuSans-20" x="344.929688"/>
      <use xlink:href="#DejaVuSans-54" x="376.716797"/>
      <use xlink:href="#DejaVuSans-72" x="423.050781"/>
      <use xlink:href="#DejaVuSans-69" x="464.164062"/>
      <use xlink:href="#DejaVuSans-6d" x="491.947266"/>
      <use xlink:href="#DejaVuSans-6d" x="589.359375"/>
      <use xlink:href="#DejaVuSans-65" x="686.771484"/>
      <use xlink:href="#DejaVuSans-64" x="748.294922"/>
      <use xlink:href="#DejaVuSans-20" x="811.771484"/>
      <use xlink:href="#DejaVuSans-28" x="843.558594"/>
      <use xlink:href="#DejaVuSans-62" x="882.572266"/>
      <use xlink:href="#DejaVuSans-70" x="946.048828"/>
      <use xlink:href="#DejaVuSans-29" x="1009.525391"/>
     </g>
    </g>
   </g>
   <g id="matplotlib.axis_2">
    <g id="ytick_1">
     <g id="line2d_1">
      <path d="M 53.328125 273.99006 
L 992.998125 273.99006 
" clip-path="url(#p9ab2ec84d3)" style="fill: none; stroke: #dedede; stroke-linecap: square"/>
     </g>
     <g id="text_8">
      <!-- 0 -->
      <g transform="translate(41.238125 277.029435) scale(0.08 -0.08)">
       <use xlink:href="#DejaVuSans-30"/>
      </g>
     </g>
    </g>
    <g id="ytick_2">
     <g id="line2d_2">
      <path d="M 53.328125 242.074079 
L 992.998125 242.074079 
" clip-path="url(#p9ab2ec84d3)" style="fill: none; stroke: #dedede; stroke-linecap: square"/>
     </g>
     <g id="text_9">
      <!-- 2000 -->
      <g transform="translate(25.968125 245.113454) scale(0.08 -0.08)">
       <use xlink:href="#DejaVuSans-32"/>
       <use xlink:href="#DejaVuSans-30" x="63.623047"/>
       <use xlink:href="#DejaVuSans-30" x="127.246094"/>
       <use xlink:href="#DejaVuSans-30" x="190.869141"/>
      </g>
     </g>
    </g>
    <g id="ytick_3">
     <g id="line2d_3">
      <path d="M 53.328125 210.158098 
L 992.998125 210.158098 
" clip-path="url(#p9ab2ec84d3)" style="fill: none; stroke: #dedede; stroke-linecap: square"/>
     </g>
     <g id="text_10">
      <!-- 4000 -->
      <g transform="translate(25.968125 213.197473) scale(0.08 -0.08)">
       <use xlink:href="#DejaVuSans-34"/>
       <use xlink:href="#DejaVuSans-30" x="63.623047"/>
       <use xlink:href="#DejaVuSans-30" x="127.246094"/>
       <use xlink:href="#DejaVuSans-30" x="190.869141"/>
      </g>
     </g>
    </g>
    <g id="ytick_4">
     <g id="line2d_4">
      <path d="M 53.328125 178.242116 
L 992.998125 178.242116 
" clip-path="url(#p9ab2ec84d3)" style="fill: none; stroke: #dedede; stroke-linecap: square"/>
     </g>
     <g id="text_11">
      <!-- 6000 -->
      <g transform="translate(25.968125 181.281491) scale(0.08 -0.08)">
       <use xlink:href="#DejaVuSans-36"/>
       <use xlink:href="#DejaVuSans-30" x="63.623047"/>
       <use xlink:href="#DejaVuSans-30" x="127.246094"/>
       <use xlink:href="#DejaVuSans-30" x="190.869141"/>
      </g>
     </g>
    </g>
    <g id="ytick_5">
     <g id="line2d_5">
      <path d="M 53.328125 146.326135 
L 992.998125 146.326135 
" clip-path="url(#p9ab2ec84d3)" style="fill: none; stroke: #dedede; stroke-linecap: square"/>
     </g>
     <g id="text_12">
      <!-- 8000 -->
      <g transform="translate(25.968125 149.36551) scale(0.08 -0.08)">
       <use xlink:href="#DejaVuSans-38"/>
       <use xlink:href="#DejaVuSans-30" x="63.623047"/>
       <use xlink:href="#DejaVuSans-30" x="127.246094"/>
       <use xlink:href="#DejaVuSans-30" x="190.869141"/>
      </g>
     </g>
    </g>
    <g id="ytick_6">
     <g id="line2d_6">
      <path d="M 53.328125 114.410154 
L 992.998125 114.410154 
" clip-path="url(#p9ab2ec84d3)" style="fill: none; stroke: #dedede; stroke-linecap: square"/>
     </g>
     <g id="text_13">
      <!-- 10000 -->
      <g transform="translate(20.878125 117.449529) scale(0.08 -0.08)">
       <use xlink:href="#DejaVuSans-31"/>
       <use xlink:href="#DejaVuSans-30" x="63.623047"/>
       <use xlink:href="#DejaVuSans-30" x="127.246094"/>
       <use xlink:href="#DejaVuSans-30" x="190.869141"/>
       <use xlink:href="#DejaVuSans-30" x="254.492188"/>
      </g>
     </g>
    </g>
    <g id="ytick_7">
     <g id="line2d_7">
      <path d="M 53.328125 82.494173 
L 992.998125 82.494173 
" clip-path="url(#p9ab2ec84d3)" style="fill: none; stroke: #dedede; stroke-linecap: square"/>
     </g>
     <g id="text_14">
      <!-- 12000 -->
      <g transform="translate(20.878125 85.533548) scale(0.08 -0.08)">
       <use xlink:href="#DejaVuSans-31"/>
       <use xlink:href="#DejaVuSans-32" x="63.623047"/>
       <use xlink:href="#DejaVuSans-30" x="127.246094"/>
       <use xlink:href="#DejaVuSans-30" x="190.869141"/>
       <use xlink:href="#DejaVuSans-30" x="254.492188"/>
      </g>
     </g>
    </g>
    <g id="ytick_8">
     <g id="line2d_8">
      <path d="M 53.328125 50.578192 
L 992.998125 50.578192 
" clip-path="url(#p9ab2ec84d3)" style="fill: none; stroke: #dedede; stroke-linecap: square"/>
     </g>
     <g id="text_15">
      <!-- 14000 -->
      <g transform="translate(20.878125 53.617567) scale(0.08 -0.08)">
       <use xlink:href="#DejaVuSans-31"/>
       <use xlink:href="#DejaVuSans-34" x="63.623047"/>
       <use xlink:href="#DejaVuSans-30" x="127.246094"/>
       <use xlink:href="#DejaVuSans-30" x="190.869141"/>
       <use xlink:href="#DejaVuSans-30" x="254.492188"/>
      </g>
     </g>
    </g>
    <g id="text_16">
     <!-- Count -->
     <g transform="translate(14.798437 167.584897) rotate(-90) scale(0.1 -0.1)">
      <defs>
       <path id="DejaVuSans-43" d="M 4122 4306 
L 4122 3641 
Q 3803 3938 3442 4084 
Q 3081 4231 2675 4231 
Q 1875 4231 1450 3742 
Q 1025 3253 1025 2328 
Q 1025 1406 1450 917 
Q 1875 428 2675 428 
Q 3081 428 3442 575 
Q 3803 722 4122 1019 
L 4122 359 
Q 3791 134 3420 21 
Q 3050 -91 2638 -91 
Q 1578 -91 968 557 
Q 359 1206 359 2328 
Q 359 3453 968 4101 
Q 1578 4750 2638 4750 
Q 3056 4750 3426 4639 
Q 3797 4528 4122 4306 
z
" transform="scale(0.015625)"/>
       <path id="DejaVuSans-6f" d="M 1959 3097 
Q 1497 3097 1228 2736 
Q 959 2375 959 1747 
Q 959 1119 1226 758 
Q 1494 397 1959 397 
Q 2419 397 2687 759 
Q 2956 1122 2956 1747 
Q 2956 2369 2687 2733 
Q 2419 3097 1959 3097 
z
M 1959 3584 
Q 2709 3584 3137 3096 
Q 3566 2609 3566 1747 
Q 3566 888 3137 398 
Q 2709 -91 1959 -91 
Q 1206 -91 779 398 
Q 353 888 353 1747 
Q 353 2609 779 3096 
Q 1206 3584 1959 3584 
z
" transform="scale(0.015625)"/>
       <path id="DejaVuSans-75" d="M 544 1381 
L 544 3500 
L 1119 3500 
L 1119 1403 
Q 1119 906 1312 657 
Q 1506 409 1894 409 
Q 2359 409 2629 706 
Q 2900 1003 2900 1516 
L 2900 3500 
L 3475 3500 
L 3475 0 
L 2900 0 
L 2900 538 
Q 2691 219 2414 64 
Q 2138 -91 1772 -91 
Q 1169 -91 856 284 
Q 544 659 544 1381 
z
M 1991 3584 
L 1991 3584 
z
" transform="scale(0.015625)"/>
      </defs>
      <use xlink:href="#DejaVuSans-43"/>
      <use xlink:href="#DejaVuSans-6f" x="69.824219"/>
      <use xlink:href="#DejaVuSans-75" x="131.005859"/>
      <use xlink:href="#DejaVuSans-6e" x="194.384766"/>
      <use xlink:href="#DejaVuSans-74" x="257.763672"/>
     </g>
    </g>
   </g>
   <g id="line2d_9">
    <path d="M 96.040398 66.456392 
L 104.582852 195.76399 
L 113.125307 252.430815 
L 121.667761 261.255583 
L 130.210216 263.234374 
L 138.75267 263.601408 
L 147.295125 264.207812 
L 155.83758 264.590804 
L 164.380034 264.909963 
L 172.922489 265.723821 
L 181.464943 265.564241 
L 190.007398 266.170645 
L 198.549852 266.84088 
L 207.092307 266.729174 
L 215.634761 267.271746 
L 224.177216 267.989856 
L 232.71967 267.846234 
L 241.262125 268.436679 
L 249.80458 269.170747 
L 258.347034 268.468595 
L 266.889489 269.314369 
L 275.431943 270.1761 
L 283.974398 270.208016 
L 292.516852 270.33568 
L 301.059307 270.319722 
L 309.601761 270.447386 
L 318.144216 271.181454 
L 326.68667 271.436782 
L 335.229125 271.468697 
L 343.77158 271.803815 
L 352.314034 272.154891 
L 360.856489 271.803815 
L 369.398943 272.490009 
L 377.941398 272.505967 
L 386.483852 272.617673 
L 395.026307 272.729379 
L 403.568761 272.505967 
L 412.111216 272.793211 
L 420.65367 272.904917 
L 429.196125 272.952791 
L 437.73858 272.745337 
L 446.281034 273.144286 
L 454.823489 273.35174 
L 463.365943 272.490009 
L 471.908398 273.51132 
L 480.450852 273.543236 
L 488.993307 273.35174 
L 497.535761 273.064497 
L 506.078216 272.952791 
L 514.62067 273.128329 
L 523.163125 272.888959 
L 531.70558 273.064497 
L 540.248034 272.888959 
L 548.790489 273.43153 
L 557.332943 273.064497 
L 565.875398 273.080455 
L 574.417852 272.920875 
L 582.960307 273.128329 
L 591.502761 273.160244 
L 600.045216 273.287908 
L 608.58767 273.559194 
L 617.130125 273.59111 
L 625.67258 273.543236 
L 634.215034 273.623026 
L 642.757489 273.734732 
L 651.299943 273.479404 
L 659.842398 273.559194 
L 668.384852 273.51132 
L 676.927307 273.319824 
L 685.469761 273.59111 
L 694.012216 273.607068 
L 702.55467 273.654942 
L 711.097125 273.638984 
L 719.63958 273.6709 
L 728.182034 273.607068 
L 736.724489 273.686858 
L 745.266943 273.607068 
L 753.809398 273.654942 
L 762.351852 273.623026 
L 770.894307 273.59111 
L 779.436761 273.59111 
L 787.979216 273.559194 
L 796.52167 273.575152 
L 805.064125 273.447488 
L 813.60658 273.224076 
L 822.149034 273.208118 
L 830.691489 272.888959 
L 839.233943 273.080455 
L 847.776398 273.096413 
L 856.318852 273.096413 
L 864.861307 272.968749 
L 873.403761 271.676151 
L 881.946216 272.777253 
L 890.48867 272.585757 
L 899.031125 272.601715 
L 907.57358 272.027227 
L 916.116034 271.819773 
L 924.658489 271.356992 
L 933.200943 273.303866 
L 941.743398 272.378303 
L 950.285852 156.427543 
" clip-path="url(#p9ab2ec84d3)" style="fill: none; stroke: #7cb5ec; stroke-linecap: square"/>
   </g>
   <g id="line2d_10">
    <path d="M 96.040398 49.700502 
L 104.582852 199.210916 
L 113.125307 245.792291 
L 121.667761 259.978944 
L 130.210216 261.542827 
L 138.75267 263.393954 
L 147.295125 264.112064 
L 155.83758 264.686551 
L 164.380034 264.878047 
L 172.922489 265.691905 
L 181.464943 265.452535 
L 190.007398 265.755737 
L 198.549852 267.303662 
L 207.092307 266.489804 
L 215.634761 267.39941 
L 224.177216 267.95794 
L 232.71967 267.734528 
L 241.262125 268.420721 
L 249.80458 261.431121 
L 258.347034 271.101664 
L 266.889489 272.825127 
L 275.431943 271.05379 
L 283.974398 270.032478 
L 292.516852 267.367494 
L 301.059307 272.633631 
L 309.601761 270.431428 
L 318.144216 263.713114 
L 326.68667 273.112371 
L 335.229125 269.489907 
L 343.77158 272.681505 
L 352.314034 273.734732 
L 360.856489 271.867647 
L 369.398943 272.761295 
L 377.941398 267.670696 
L 386.483852 273.160244 
L 395.026307 272.601715 
L 403.568761 272.920875 
L 412.111216 273.623026 
L 420.65367 271.867647 
L 429.196125 273.623026 
L 437.73858 272.442135 
L 446.281034 273.559194 
L 454.823489 271.548487 
L 463.365943 273.846438 
L 471.908398 271.644235 
L 480.450852 273.51132 
L 488.993307 273.926228 
L 497.535761 273.096413 
L 506.078216 273.878354 
L 514.62067 273.559194 
L 523.163125 273.75069 
L 531.70558 273.128329 
L 540.248034 273.974102 
L 548.790489 273.878354 
L 557.332943 273.527278 
L 565.875398 273.846438 
L 574.417852 273.160244 
L 582.960307 273.75069 
L 591.502761 273.638984 
L 600.045216 273.878354 
L 608.58767 273.926228 
L 617.130125 273.814522 
L 625.67258 273.942186 
L 634.215034 273.878354 
L 642.757489 273.958144 
L 651.299943 273.798564 
L 659.842398 273.926228 
L 668.384852 273.958144 
L 676.927307 273.894312 
L 685.469761 273.75069 
L 694.012216 273.974102 
L 702.55467 273.878354 
L 711.097125 273.814522 
L 719.63958 273.814522 
L 728.182034 273.91027 
L 736.724489 273.942186 
L 745.266943 273.862396 
L 753.809398 273.83048 
L 762.351852 273.75069 
L 770.894307 273.686858 
L 779.436761 273.6709 
L 787.979216 273.607068 
L 796.52167 273.559194 
L 805.064125 273.495362 
L 813.60658 273.240034 
L 822.149034 273.224076 
L 830.691489 272.968749 
L 839.233943 272.968749 
L 847.776398 273.27195 
L 856.318852 273.064497 
L 864.861307 272.920875 
L 873.403761 271.819773 
L 881.946216 272.873001 
L 890.48867 272.505967 
L 899.031125 272.745337 
L 907.57358 271.995311 
L 916.116034 271.755941 
L 924.658489 271.500613 
L 933.200943 273.35174 
L 941.743398 273.702816 
L 950.285852 268.293057 
" clip-path="url(#p9ab2ec84d3)" style="fill: none; stroke: #434348; stroke-linecap: square"/>
   </g>
   <g id="line2d_11">
    <path d="M 96.040398 61.397709 
L 104.582852 195.013965 
L 113.125307 252.015907 
L 121.667761 259.739574 
L 130.210216 261.574743 
L 138.75267 263.34608 
L 147.295125 263.393954 
L 155.83758 264.032274 
L 164.380034 264.080148 
L 172.922489 265.133375 
L 181.464943 264.654635 
L 190.007398 265.452535 
L 198.549852 265.516367 
L 207.092307 266.92067 
L 215.634761 266.489804 
L 224.177216 266.6813 
L 232.71967 267.128124 
L 241.262125 268.101561 
L 249.80458 268.293057 
L 258.347034 267.894108 
L 266.889489 268.197309 
L 275.431943 269.234579 
L 283.974398 269.585655 
L 292.516852 269.904814 
L 301.059307 270.1761 
L 309.601761 269.93673 
L 318.144216 270.862294 
L 326.68667 270.479302 
L 335.229125 270.782504 
L 343.77158 271.085706 
L 352.314034 271.548487 
L 360.856489 271.500613 
L 369.398943 271.899563 
L 377.941398 272.138933 
L 386.483852 272.091059 
L 395.026307 272.154891 
L 403.568761 272.426177 
L 412.111216 272.442135 
L 420.65367 272.521925 
L 429.196125 272.745337 
L 437.73858 272.809169 
L 446.281034 272.920875 
L 454.823489 272.793211 
L 463.365943 272.394261 
L 471.908398 273.479404 
L 480.450852 273.224076 
L 488.993307 273.367698 
L 497.535761 272.266597 
L 506.078216 272.617673 
L 514.62067 272.426177 
L 523.163125 272.474051 
L 531.70558 272.107017 
L 540.248034 271.612319 
L 548.790489 272.873001 
L 557.332943 272.569799 
L 565.875398 272.378303 
L 574.417852 272.394261 
L 582.960307 273.128329 
L 591.502761 273.495362 
L 600.045216 273.559194 
L 608.58767 273.623026 
L 617.130125 273.479404 
L 625.67258 273.559194 
L 634.215034 273.686858 
L 642.757489 273.654942 
L 651.299943 273.654942 
L 659.842398 273.559194 
L 668.384852 273.303866 
L 676.927307 273.160244 
L 685.469761 273.048539 
L 694.012216 273.399614 
L 702.55467 273.224076 
L 711.097125 273.607068 
L 719.63958 273.527278 
L 728.182034 273.702816 
L 736.724489 273.798564 
L 745.266943 273.638984 
L 753.809398 273.702816 
L 762.351852 273.527278 
L 770.894307 273.623026 
L 779.436761 273.702816 
L 787.979216 273.654942 
L 796.52167 273.51132 
L 805.064125 273.559194 
L 813.60658 273.335782 
L 822.149034 273.303866 
L 830.691489 273.144286 
L 839.233943 273.240034 
L 847.776398 273.000665 
L 856.318852 273.367698 
L 864.861307 273.160244 
L 873.403761 272.649589 
L 881.946216 273.128329 
L 890.48867 273.208118 
L 899.031125 273.000665 
L 907.57358 272.665547 
L 916.116034 272.697463 
L 924.658489 272.186807 
L 933.200943 273.654942 
L 941.743398 272.920875 
L 950.285852 198.205563 
" clip-path="url(#p9ab2ec84d3)" style="fill: none; stroke: #90ed7d; stroke-linecap: square"/>
   </g>
   <g id="line2d_12">
    <path d="M 96.040398 43.030062 
L 104.582852 194.646931 
L 113.125307 244.882685 
L 121.667761 259.260835 
L 130.210216 260.345978 
L 138.75267 263.010962 
L 147.295125 263.362038 
L 155.83758 264.159938 
L 164.380034 264.032274 
L 172.922489 265.276997 
L 181.464943 264.638678 
L 190.007398 265.261039 
L 198.549852 265.851485 
L 207.092307 266.84088 
L 215.634761 266.425972 
L 224.177216 266.745132 
L 232.71967 266.856838 
L 241.262125 267.941982 
L 249.80458 259.978944 
L 258.347034 270.591008 
L 266.889489 272.601715 
L 275.431943 270.09631 
L 283.974398 269.697361 
L 292.516852 267.415368 
L 301.059307 272.442135 
L 309.601761 269.793108 
L 318.144216 265.931275 
L 326.68667 272.170849 
L 335.229125 262.643929 
L 343.77158 272.729379 
L 352.314034 273.35174 
L 360.856489 272.458093 
L 369.398943 270.830378 
L 377.941398 273.75069 
L 386.483852 272.521925 
L 395.026307 270.319722 
L 403.568761 270.57505 
L 412.111216 272.553841 
L 420.65367 270.048436 
L 429.196125 273.287908 
L 437.73858 268.101561 
L 446.281034 273.814522 
L 454.823489 273.495362 
L 463.365943 273.798564 
L 471.908398 271.452739 
L 480.450852 273.75069 
L 488.993307 273.798564 
L 497.535761 272.633631 
L 506.078216 273.734732 
L 514.62067 273.240034 
L 523.163125 273.6709 
L 531.70558 272.745337 
L 540.248034 273.91027 
L 548.790489 273.479404 
L 557.332943 273.048539 
L 565.875398 273.814522 
L 574.417852 273.080455 
L 582.960307 273.575152 
L 591.502761 273.623026 
L 600.045216 273.734732 
L 608.58767 273.958144 
L 617.130125 273.91027 
L 625.67258 273.702816 
L 634.215034 273.862396 
L 642.757489 273.894312 
L 651.299943 273.83048 
L 659.842398 273.958144 
L 668.384852 273.846438 
L 676.927307 273.926228 
L 685.469761 273.335782 
L 694.012216 273.846438 
L 702.55467 273.878354 
L 711.097125 273.798564 
L 719.63958 273.91027 
L 728.182034 273.974102 
L 736.724489 273.958144 
L 745.266943 273.846438 
L 753.809398 273.766648 
L 762.351852 273.686858 
L 770.894307 273.638984 
L 779.436761 273.782606 
L 787.979216 273.638984 
L 796.52167 273.43153 
L 805.064125 273.59111 
L 813.60658 273.335782 
L 822.149034 273.383656 
L 830.691489 273.112371 
L 839.233943 273.224076 
L 847.776398 273.160244 
L 856.318852 273.319824 
L 864.861307 273.144286 
L 873.403761 272.681505 
L 881.946216 273.112371 
L 890.48867 273.208118 
L 899.031125 273.048539 
L 907.57358 272.697463 
L 916.116034 272.713421 
L 924.658489 272.314471 
L 933.200943 273.638984 
L 941.743398 273.798564 
L 950.285852 270.239932 
" clip-path="url(#p9ab2ec84d3)" style="fill: none; stroke: #f7a35c; stroke-linecap: square"/>
   </g>
   <g id="line2d_13">
    <path d="M 53.328125 273.99006 
L 992.998125 273.99006 
" clip-path="url(#p9ab2ec84d3)" style="fill: none; stroke: #dedede; stroke-width: 2; stroke-linecap: square"/>
   </g>
   <g id="text_17">
    <!-- Cutadapt: Lengths of Trimmed Sequences (3' end) -->
    <g transform="translate(321.810625 19.3575) scale(0.16 -0.16)">
     <defs>
      <path id="DejaVuSans-61" d="M 2194 1759 
Q 1497 1759 1228 1600 
Q 959 1441 959 1056 
Q 959 750 1161 570 
Q 1363 391 1709 391 
Q 2188 391 2477 730 
Q 2766 1069 2766 1631 
L 2766 1759 
L 2194 1759 
z
M 3341 1997 
L 3341 0 
L 2766 0 
L 2766 531 
Q 2569 213 2275 61 
Q 1981 -91 1556 -91 
Q 1019 -91 701 211 
Q 384 513 384 1019 
Q 384 1609 779 1909 
Q 1175 2209 1959 2209 
L 2766 2209 
L 2766 2266 
Q 2766 2663 2505 2880 
Q 2244 3097 1772 3097 
Q 1472 3097 1187 3025 
Q 903 2953 641 2809 
L 641 3341 
Q 956 3463 1253 3523 
Q 1550 3584 1831 3584 
Q 2591 3584 2966 3190 
Q 3341 2797 3341 1997 
z
" transform="scale(0.015625)"/>
      <path id="DejaVuSans-3a" d="M 750 794 
L 1409 794 
L 1409 0 
L 750 0 
L 750 794 
z
M 750 3309 
L 1409 3309 
L 1409 2516 
L 750 2516 
L 750 3309 
z
" transform="scale(0.015625)"/>
      <path id="DejaVuSans-73" d="M 2834 3397 
L 2834 2853 
Q 2591 2978 2328 3040 
Q 2066 3103 1784 3103 
Q 1356 3103 1142 2972 
Q 928 2841 928 2578 
Q 928 2378 1081 2264 
Q 1234 2150 1697 2047 
L 1894 2003 
Q 2506 1872 2764 1633 
Q 3022 1394 3022 966 
Q 3022 478 2636 193 
Q 2250 -91 1575 -91 
Q 1294 -91 989 -36 
Q 684 19 347 128 
L 347 722 
Q 666 556 975 473 
Q 1284 391 1588 391 
Q 1994 391 2212 530 
Q 2431 669 2431 922 
Q 2431 1156 2273 1281 
Q 2116 1406 1581 1522 
L 1381 1569 
Q 847 1681 609 1914 
Q 372 2147 372 2553 
Q 372 3047 722 3315 
Q 1072 3584 1716 3584 
Q 2034 3584 2315 3537 
Q 2597 3491 2834 3397 
z
" transform="scale(0.015625)"/>
      <path id="DejaVuSans-66" d="M 2375 4863 
L 2375 4384 
L 1825 4384 
Q 1516 4384 1395 4259 
Q 1275 4134 1275 3809 
L 1275 3500 
L 2222 3500 
L 2222 3053 
L 1275 3053 
L 1275 0 
L 697 0 
L 697 3053 
L 147 3053 
L 147 3500 
L 697 3500 
L 697 3744 
Q 697 4328 969 4595 
Q 1241 4863 1831 4863 
L 2375 4863 
z
" transform="scale(0.015625)"/>
      <path id="DejaVuSans-53" d="M 3425 4513 
L 3425 3897 
Q 3066 4069 2747 4153 
Q 2428 4238 2131 4238 
Q 1616 4238 1336 4038 
Q 1056 3838 1056 3469 
Q 1056 3159 1242 3001 
Q 1428 2844 1947 2747 
L 2328 2669 
Q 3034 2534 3370 2195 
Q 3706 1856 3706 1288 
Q 3706 609 3251 259 
Q 2797 -91 1919 -91 
Q 1588 -91 1214 -16 
Q 841 59 441 206 
L 441 856 
Q 825 641 1194 531 
Q 1563 422 1919 422 
Q 2459 422 2753 634 
Q 3047 847 3047 1241 
Q 3047 1584 2836 1778 
Q 2625 1972 2144 2069 
L 1759 2144 
Q 1053 2284 737 2584 
Q 422 2884 422 3419 
Q 422 4038 858 4394 
Q 1294 4750 2059 4750 
Q 2388 4750 2728 4690 
Q 3069 4631 3425 4513 
z
" transform="scale(0.015625)"/>
      <path id="DejaVuSans-71" d="M 947 1747 
Q 947 1113 1208 752 
Q 1469 391 1925 391 
Q 2381 391 2643 752 
Q 2906 1113 2906 1747 
Q 2906 2381 2643 2742 
Q 2381 3103 1925 3103 
Q 1469 3103 1208 2742 
Q 947 2381 947 1747 
z
M 2906 525 
Q 2725 213 2448 61 
Q 2172 -91 1784 -91 
Q 1150 -91 751 415 
Q 353 922 353 1747 
Q 353 2572 751 3078 
Q 1150 3584 1784 3584 
Q 2172 3584 2448 3432 
Q 2725 3281 2906 2969 
L 2906 3500 
L 3481 3500 
L 3481 -1331 
L 2906 -1331 
L 2906 525 
z
" transform="scale(0.015625)"/>
      <path id="DejaVuSans-63" d="M 3122 3366 
L 3122 2828 
Q 2878 2963 2633 3030 
Q 2388 3097 2138 3097 
Q 1578 3097 1268 2742 
Q 959 2388 959 1747 
Q 959 1106 1268 751 
Q 1578 397 2138 397 
Q 2388 397 2633 464 
Q 2878 531 3122 666 
L 3122 134 
Q 2881 22 2623 -34 
Q 2366 -91 2075 -91 
Q 1284 -91 818 406 
Q 353 903 353 1747 
Q 353 2603 823 3093 
Q 1294 3584 2113 3584 
Q 2378 3584 2631 3529 
Q 2884 3475 3122 3366 
z
" transform="scale(0.015625)"/>
      <path id="DejaVuSans-33" d="M 2597 2516 
Q 3050 2419 3304 2112 
Q 3559 1806 3559 1356 
Q 3559 666 3084 287 
Q 2609 -91 1734 -91 
Q 1441 -91 1130 -33 
Q 819 25 488 141 
L 488 750 
Q 750 597 1062 519 
Q 1375 441 1716 441 
Q 2309 441 2620 675 
Q 2931 909 2931 1356 
Q 2931 1769 2642 2001 
Q 2353 2234 1838 2234 
L 1294 2234 
L 1294 2753 
L 1863 2753 
Q 2328 2753 2575 2939 
Q 2822 3125 2822 3475 
Q 2822 3834 2567 4026 
Q 2313 4219 1838 4219 
Q 1578 4219 1281 4162 
Q 984 4106 628 3988 
L 628 4550 
Q 988 4650 1302 4700 
Q 1616 4750 1894 4750 
Q 2613 4750 3031 4423 
Q 3450 4097 3450 3541 
Q 3450 3153 3228 2886 
Q 3006 2619 2597 2516 
z
" transform="scale(0.015625)"/>
      <path id="DejaVuSans-27" d="M 1147 4666 
L 1147 2931 
L 616 2931 
L 616 4666 
L 1147 4666 
z
" transform="scale(0.015625)"/>
     </defs>
     <use xlink:href="#DejaVuSans-43"/>
     <use xlink:href="#DejaVuSans-75" x="69.824219"/>
     <use xlink:href="#DejaVuSans-74" x="133.203125"/>
     <use xlink:href="#DejaVuSans-61" x="172.412109"/>
     <use xlink:href="#DejaVuSans-64" x="233.691406"/>
     <use xlink:href="#DejaVuSans-61" x="297.167969"/>
     <use xlink:href="#DejaVuSans-70" x="358.447266"/>
     <use xlink:href="#DejaVuSans-74" x="421.923828"/>
     <use xlink:href="#DejaVuSans-3a" x="461.132812"/>
     <use xlink:href="#DejaVuSans-20" x="494.824219"/>
     <use xlink:href="#DejaVuSans-4c" x="526.611328"/>
     <use xlink:href="#DejaVuSans-65" x="580.574219"/>
     <use xlink:href="#DejaVuSans-6e" x="642.097656"/>
     <use xlink:href="#DejaVuSans-67" x="705.476562"/>
     <use xlink:href="#DejaVuSans-74" x="768.953125"/>
     <use xlink:href="#DejaVuSans-68" x="808.162109"/>
     <use xlink:href="#DejaVuSans-73" x="871.541016"/>
     <use xlink:href="#DejaVuSans-20" x="923.640625"/>
     <use xlink:href="#DejaVuSans-6f" x="955.427734"/>
     <use xlink:href="#DejaVuSans-66" x="1016.609375"/>
     <use xlink:href="#DejaVuSans-20" x="1051.814453"/>
     <use xlink:href="#DejaVuSans-54" x="1083.601562"/>
     <use xlink:href="#DejaVuSans-72" x="1129.935547"/>
     <use xlink:href="#DejaVuSans-69" x="1171.048828"/>
     <use xlink:href="#DejaVuSans-6d" x="1198.832031"/>
     <use xlink:href="#DejaVuSans-6d" x="1296.244141"/>
     <use xlink:href="#DejaVuSans-65" x="1393.65625"/>
     <use xlink:href="#DejaVuSans-64" x="1455.179688"/>
     <use xlink:href="#DejaVuSans-20" x="1518.65625"/>
     <use xlink:href="#DejaVuSans-53" x="1550.443359"/>
     <use xlink:href="#DejaVuSans-65" x="1613.919922"/>
     <use xlink:href="#DejaVuSans-71" x="1675.443359"/>
     <use xlink:href="#DejaVuSans-75" x="1738.919922"/>
     <use xlink:href="#DejaVuSans-65" x="1802.298828"/>
     <use xlink:href="#DejaVuSans-6e" x="1863.822266"/>
     <use xlink:href="#DejaVuSans-63" x="1927.201172"/>
     <use xlink:href="#DejaVuSans-65" x="1982.181641"/>
     <use xlink:href="#DejaVuSans-73" x="2043.705078"/>
     <use xlink:href="#DejaVuSans-20" x="2095.804688"/>
     <use xlink:href="#DejaVuSans-28" x="2127.591797"/>
     <use xlink:href="#DejaVuSans-33" x="2166.605469"/>
     <use xlink:href="#DejaVuSans-27" x="2230.228516"/>
     <use xlink:href="#DejaVuSans-20" x="2257.71875"/>
     <use xlink:href="#DejaVuSans-65" x="2289.505859"/>
     <use xlink:href="#DejaVuSans-6e" x="2351.029297"/>
     <use xlink:href="#DejaVuSans-64" x="2414.408203"/>
     <use xlink:href="#DejaVuSans-29" x="2477.884766"/>
    </g>
   </g>
   <g id="legend_1">
    <g id="line2d_14">
     <path d="M 60.528125 315.455394 
L 68.528125 315.455394 
L 76.528125 315.455394 
" style="fill: none; stroke: #7cb5ec; stroke-linecap: square"/>
    </g>
    <g id="text_18">
     <!-- wt_1_light_T1_1 - Adapter 1 -->
     <g transform="translate(82.928125 318.255394) scale(0.08 -0.08)">
      <defs>
       <path id="DejaVuSans-77" d="M 269 3500 
L 844 3500 
L 1563 769 
L 2278 3500 
L 2956 3500 
L 3675 769 
L 4391 3500 
L 4966 3500 
L 4050 0 
L 3372 0 
L 2619 2869 
L 1863 0 
L 1184 0 
L 269 3500 
z
" transform="scale(0.015625)"/>
       <path id="DejaVuSans-5f" d="M 3263 -1063 
L 3263 -1509 
L -63 -1509 
L -63 -1063 
L 3263 -1063 
z
" transform="scale(0.015625)"/>
       <path id="DejaVuSans-6c" d="M 603 4863 
L 1178 4863 
L 1178 0 
L 603 0 
L 603 4863 
z
" transform="scale(0.015625)"/>
       <path id="DejaVuSans-2d" d="M 313 2009 
L 1997 2009 
L 1997 1497 
L 313 1497 
L 313 2009 
z
" transform="scale(0.015625)"/>
       <path id="DejaVuSans-41" d="M 2188 4044 
L 1331 1722 
L 3047 1722 
L 2188 4044 
z
M 1831 4666 
L 2547 4666 
L 4325 0 
L 3669 0 
L 3244 1197 
L 1141 1197 
L 716 0 
L 50 0 
L 1831 4666 
z
" transform="scale(0.015625)"/>
      </defs>
      <use xlink:href="#DejaVuSans-77"/>
      <use xlink:href="#DejaVuSans-74" x="81.787109"/>
      <use xlink:href="#DejaVuSans-5f" x="120.996094"/>
      <use xlink:href="#DejaVuSans-31" x="170.996094"/>
      <use xlink:href="#DejaVuSans-5f" x="234.619141"/>
      <use xlink:href="#DejaVuSans-6c" x="284.619141"/>
      <use xlink:href="#DejaVuSans-69" x="312.402344"/>
      <use xlink:href="#DejaVuSans-67" x="340.185547"/>
      <use xlink:href="#DejaVuSans-68" x="403.662109"/>
      <use xlink:href="#DejaVuSans-74" x="467.041016"/>
      <use xlink:href="#DejaVuSans-5f" x="506.25"/>
      <use xlink:href="#DejaVuSans-54" x="556.25"/>
      <use xlink:href="#DejaVuSans-31" x="617.333984"/>
      <use xlink:href="#DejaVuSans-5f" x="680.957031"/>
      <use xlink:href="#DejaVuSans-31" x="730.957031"/>
      <use xlink:href="#DejaVuSans-20" x="794.580078"/>
      <use xlink:href="#DejaVuSans-2d" x="826.367188"/>
      <use xlink:href="#DejaVuSans-20" x="862.451172"/>
      <use xlink:href="#DejaVuSans-41" x="894.238281"/>
      <use xlink:href="#DejaVuSans-64" x="960.896484"/>
      <use xlink:href="#DejaVuSans-61" x="1024.373047"/>
      <use xlink:href="#DejaVuSans-70" x="1085.652344"/>
      <use xlink:href="#DejaVuSans-74" x="1149.128906"/>
      <use xlink:href="#DejaVuSans-65" x="1188.337891"/>
      <use xlink:href="#DejaVuSans-72" x="1249.861328"/>
      <use xlink:href="#DejaVuSans-20" x="1290.974609"/>
      <use xlink:href="#DejaVuSans-31" x="1322.761719"/>
     </g>
    </g>
    <g id="line2d_15">
     <path d="M 324.515208 315.455394 
L 332.515208 315.455394 
L 340.515208 315.455394 
" style="fill: none; stroke: #434348; stroke-linecap: square"/>
    </g>
    <g id="text_19">
     <!-- wt_1_light_T1_2 - Adapter 1 -->
     <g transform="translate(346.915208 318.255394) scale(0.08 -0.08)">
      <use xlink:href="#DejaVuSans-77"/>
      <use xlink:href="#DejaVuSans-74" x="81.787109"/>
      <use xlink:href="#DejaVuSans-5f" x="120.996094"/>
      <use xlink:href="#DejaVuSans-31" x="170.996094"/>
      <use xlink:href="#DejaVuSans-5f" x="234.619141"/>
      <use xlink:href="#DejaVuSans-6c" x="284.619141"/>
      <use xlink:href="#DejaVuSans-69" x="312.402344"/>
      <use xlink:href="#DejaVuSans-67" x="340.185547"/>
      <use xlink:href="#DejaVuSans-68" x="403.662109"/>
      <use xlink:href="#DejaVuSans-74" x="467.041016"/>
      <use xlink:href="#DejaVuSans-5f" x="506.25"/>
      <use xlink:href="#DejaVuSans-54" x="556.25"/>
      <use xlink:href="#DejaVuSans-31" x="617.333984"/>
      <use xlink:href="#DejaVuSans-5f" x="680.957031"/>
      <use xlink:href="#DejaVuSans-32" x="730.957031"/>
      <use xlink:href="#DejaVuSans-20" x="794.580078"/>
      <use xlink:href="#DejaVuSans-2d" x="826.367188"/>
      <use xlink:href="#DejaVuSans-20" x="862.451172"/>
      <use xlink:href="#DejaVuSans-41" x="894.238281"/>
      <use xlink:href="#DejaVuSans-64" x="960.896484"/>
      <use xlink:href="#DejaVuSans-61" x="1024.373047"/>
      <use xlink:href="#DejaVuSans-70" x="1085.652344"/>
      <use xlink:href="#DejaVuSans-74" x="1149.128906"/>
      <use xlink:href="#DejaVuSans-65" x="1188.337891"/>
      <use xlink:href="#DejaVuSans-72" x="1249.861328"/>
      <use xlink:href="#DejaVuSans-20" x="1290.974609"/>
      <use xlink:href="#DejaVuSans-31" x="1322.761719"/>
     </g>
    </g>
    <g id="line2d_16">
     <path d="M 588.502292 315.455394 
L 596.502292 315.455394 
L 604.502292 315.455394 
" style="fill: none; stroke: #90ed7d; stroke-linecap: square"/>
    </g>
    <g id="text_20">
     <!-- wt_2_light_T1_1 - Adapter 1 -->
     <g transform="translate(610.902292 318.255394) scale(0.08 -0.08)">
      <use xlink:href="#DejaVuSans-77"/>
      <use xlink:href="#DejaVuSans-74" x="81.787109"/>
      <use xlink:href="#DejaVuSans-5f" x="120.996094"/>
      <use xlink:href="#DejaVuSans-32" x="170.996094"/>
      <use xlink:href="#DejaVuSans-5f" x="234.619141"/>
      <use xlink:href="#DejaVuSans-6c" x="284.619141"/>
      <use xlink:href="#DejaVuSans-69" x="312.402344"/>
      <use xlink:href="#DejaVuSans-67" x="340.185547"/>
      <use xlink:href="#DejaVuSans-68" x="403.662109"/>
      <use xlink:href="#DejaVuSans-74" x="467.041016"/>
      <use xlink:href="#DejaVuSans-5f" x="506.25"/>
      <use xlink:href="#DejaVuSans-54" x="556.25"/>
      <use xlink:href="#DejaVuSans-31" x="617.333984"/>
      <use xlink:href="#DejaVuSans-5f" x="680.957031"/>
      <use xlink:href="#DejaVuSans-31" x="730.957031"/>
      <use xlink:href="#DejaVuSans-20" x="794.580078"/>
      <use xlink:href="#DejaVuSans-2d" x="826.367188"/>
      <use xlink:href="#DejaVuSans-20" x="862.451172"/>
      <use xlink:href="#DejaVuSans-41" x="894.238281"/>
      <use xlink:href="#DejaVuSans-64" x="960.896484"/>
      <use xlink:href="#DejaVuSans-61" x="1024.373047"/>
      <use xlink:href="#DejaVuSans-70" x="1085.652344"/>
      <use xlink:href="#DejaVuSans-74" x="1149.128906"/>
      <use xlink:href="#DejaVuSans-65" x="1188.337891"/>
      <use xlink:href="#DejaVuSans-72" x="1249.861328"/>
      <use xlink:href="#DejaVuSans-20" x="1290.974609"/>
      <use xlink:href="#DejaVuSans-31" x="1322.761719"/>
     </g>
    </g>
    <g id="line2d_17">
     <path d="M 852.489375 315.455394 
L 860.489375 315.455394 
L 868.489375 315.455394 
" style="fill: none; stroke: #f7a35c; stroke-linecap: square"/>
    </g>
    <g id="text_21">
     <!-- wt_2_light_T1_2 - Adapter 1 -->
     <g transform="translate(874.889375 318.255394) scale(0.08 -0.08)">
      <use xlink:href="#DejaVuSans-77"/>
      <use xlink:href="#DejaVuSans-74" x="81.787109"/>
      <use xlink:href="#DejaVuSans-5f" x="120.996094"/>
      <use xlink:href="#DejaVuSans-32" x="170.996094"/>
      <use xlink:href="#DejaVuSans-5f" x="234.619141"/>
      <use xlink:href="#DejaVuSans-6c" x="284.619141"/>
      <use xlink:href="#DejaVuSans-69" x="312.402344"/>
      <use xlink:href="#DejaVuSans-67" x="340.185547"/>
      <use xlink:href="#DejaVuSans-68" x="403.662109"/>
      <use xlink:href="#DejaVuSans-74" x="467.041016"/>
      <use xlink:href="#DejaVuSans-5f" x="506.25"/>
      <use xlink:href="#DejaVuSans-54" x="556.25"/>
      <use xlink:href="#DejaVuSans-31" x="617.333984"/>
      <use xlink:href="#DejaVuSans-5f" x="680.957031"/>
      <use xlink:href="#DejaVuSans-32" x="730.957031"/>
      <use xlink:href="#DejaVuSans-20" x="794.580078"/>
      <use xlink:href="#DejaVuSans-2d" x="826.367188"/>
      <use xlink:href="#DejaVuSans-20" x="862.451172"/>
      <use xlink:href="#DejaVuSans-41" x="894.238281"/>
      <use xlink:href="#DejaVuSans-64" x="960.896484"/>
      <use xlink:href="#DejaVuSans-61" x="1024.373047"/>
      <use xlink:href="#DejaVuSans-70" x="1085.652344"/>
      <use xlink:href="#DejaVuSans-74" x="1149.128906"/>
      <use xlink:href="#DejaVuSans-65" x="1188.337891"/>
      <use xlink:href="#DejaVuSans-72" x="1249.861328"/>
      <use xlink:href="#DejaVuSans-20" x="1290.974609"/>
      <use xlink:href="#DejaVuSans-31" x="1322.761719"/>
     </g>
    </g>
   </g>
  </g>
 </g>
 <defs>
  <clipPath id="p9ab2ec84d3">
   <rect x="53.328125" y="31.48286" width="939.67" height="242.5072"/>
  </clipPath>
 </defs>
</svg>
