<?xml version="1.0" encoding="utf-8" standalone="no"?>
<!DOCTYPE svg PUBLIC "-//W3C//DTD SVG 1.1//EN"
  "http://www.w3.org/Graphics/SVG/1.1/DTD/svg11.dtd">
<svg xmlns:xlink="http://www.w3.org/1999/xlink" width="1000.238125pt" height="330.541644pt" viewBox="0 0 1000.238125 330.541644" xmlns="http://www.w3.org/2000/svg" version="1.1">
 <metadata>
  <rdf:RDF xmlns:dc="http://purl.org/dc/elements/1.1/" xmlns:cc="http://creativecommons.org/ns#" xmlns:rdf="http://www.w3.org/1999/02/22-rdf-syntax-ns#">
   <cc:Work>
    <dc:type rdf:resource="http://purl.org/dc/dcmitype/StillImage"/>
    <dc:date>2025-01-27T16:07:11.036166</dc:date>
    <dc:format>image/svg+xml</dc:format>
    <dc:creator>
     <cc:Agent>
      <dc:title>Matplotlib v3.6.2, https://matplotlib.org/</dc:title>
     </cc:Agent>
    </dc:creator>
   </cc:Work>
  </rdf:RDF>
 </metadata>
 <defs>
  <style type="text/css">*{stroke-linejoin: round; stroke-linecap: butt}</style>
 </defs>
 <g id="figure_1">
  <g id="axes_1">
   <g id="patch_1">
    <path d="M 48.238125 273.99006 
L 993.038125 273.99006 
L 993.038125 31.48286 
L 48.238125 31.48286 
z
" style="fill: #ffffff"/>
   </g>
   <g id="matplotlib.axis_1">
    <g id="xtick_1">
     <g id="text_1">
      <!-- 0 -->
      <g transform="translate(80.049489 287.06881) scale(0.08 -0.08)">
       <defs>
        <path id="DejaVuSans-30" d="M 2034 4250 
Q 1547 4250 1301 3770 
Q 1056 3291 1056 2328 
Q 1056 1369 1301 889 
Q 1547 409 2034 409 
Q 2525 409 2770 889 
Q 3016 1369 3016 2328 
Q 3016 3291 2770 3770 
Q 2525 4250 2034 4250 
z
M 2034 4750 
Q 2819 4750 3233 4129 
Q 3647 3509 3647 2328 
Q 3647 1150 3233 529 
Q 2819 -91 2034 -91 
Q 1250 -91 836 529 
Q 422 1150 422 2328 
Q 422 3509 836 4129 
Q 1250 4750 2034 4750 
z
" transform="scale(0.015625)"/>
       </defs>
       <use xlink:href="#DejaVuSans-30"/>
      </g>
     </g>
    </g>
    <g id="xtick_2">
     <g id="text_2">
      <!-- 20 -->
      <g transform="translate(249.286307 287.06881) scale(0.08 -0.08)">
       <defs>
        <path id="DejaVuSans-32" d="M 1228 531 
L 3431 531 
L 3431 0 
L 469 0 
L 469 531 
Q 828 903 1448 1529 
Q 2069 2156 2228 2338 
Q 2531 2678 2651 2914 
Q 2772 3150 2772 3378 
Q 2772 3750 2511 3984 
Q 2250 4219 1831 4219 
Q 1534 4219 1204 4116 
Q 875 4013 500 3803 
L 500 4441 
Q 881 4594 1212 4672 
Q 1544 4750 1819 4750 
Q 2544 4750 2975 4387 
Q 3406 4025 3406 3419 
Q 3406 3131 3298 2873 
Q 3191 2616 2906 2266 
Q 2828 2175 2409 1742 
Q 1991 1309 1228 531 
z
" transform="scale(0.015625)"/>
       </defs>
       <use xlink:href="#DejaVuSans-32"/>
       <use xlink:href="#DejaVuSans-30" x="63.623047"/>
      </g>
     </g>
    </g>
    <g id="xtick_3">
     <g id="text_3">
      <!-- 40 -->
      <g transform="translate(421.068125 287.06881) scale(0.08 -0.08)">
       <defs>
        <path id="DejaVuSans-34" d="M 2419 4116 
L 825 1625 
L 2419 1625 
L 2419 4116 
z
M 2253 4666 
L 3047 4666 
L 3047 1625 
L 3713 1625 
L 3713 1100 
L 3047 1100 
L 3047 0 
L 2419 0 
L 2419 1100 
L 313 1100 
L 313 1709 
L 2253 4666 
z
" transform="scale(0.015625)"/>
       </defs>
       <use xlink:href="#DejaVuSans-34"/>
       <use xlink:href="#DejaVuSans-30" x="63.623047"/>
      </g>
     </g>
    </g>
    <g id="xtick_4">
     <g id="text_4">
      <!-- 60 -->
      <g transform="translate(592.849943 287.06881) scale(0.08 -0.08)">
       <defs>
        <path id="DejaVuSans-36" d="M 2113 2584 
Q 1688 2584 1439 2293 
Q 1191 2003 1191 1497 
Q 1191 994 1439 701 
Q 1688 409 2113 409 
Q 2538 409 2786 701 
Q 3034 994 3034 1497 
Q 3034 2003 2786 2293 
Q 2538 2584 2113 2584 
z
M 3366 4563 
L 3366 3988 
Q 3128 4100 2886 4159 
Q 2644 4219 2406 4219 
Q 1781 4219 1451 3797 
Q 1122 3375 1075 2522 
Q 1259 2794 1537 2939 
Q 1816 3084 2150 3084 
Q 2853 3084 3261 2657 
Q 3669 2231 3669 1497 
Q 3669 778 3244 343 
Q 2819 -91 2113 -91 
Q 1303 -91 875 529 
Q 447 1150 447 2328 
Q 447 3434 972 4092 
Q 1497 4750 2381 4750 
Q 2619 4750 2861 4703 
Q 3103 4656 3366 4563 
z
" transform="scale(0.015625)"/>
       </defs>
       <use xlink:href="#DejaVuSans-36"/>
       <use xlink:href="#DejaVuSans-30" x="63.623047"/>
      </g>
     </g>
    </g>
    <g id="xtick_5">
     <g id="text_5">
      <!-- 80 -->
      <g transform="translate(764.631761 287.06881) scale(0.08 -0.08)">
       <defs>
        <path id="DejaVuSans-38" d="M 2034 2216 
Q 1584 2216 1326 1975 
Q 1069 1734 1069 1313 
Q 1069 891 1326 650 
Q 1584 409 2034 409 
Q 2484 409 2743 651 
Q 3003 894 3003 1313 
Q 3003 1734 2745 1975 
Q 2488 2216 2034 2216 
z
M 1403 2484 
Q 997 2584 770 2862 
Q 544 3141 544 3541 
Q 544 4100 942 4425 
Q 1341 4750 2034 4750 
Q 2731 4750 3128 4425 
Q 3525 4100 3525 3541 
Q 3525 3141 3298 2862 
Q 3072 2584 2669 2484 
Q 3125 2378 3379 2068 
Q 3634 1759 3634 1313 
Q 3634 634 3220 271 
Q 2806 -91 2034 -91 
Q 1263 -91 848 271 
Q 434 634 434 1313 
Q 434 1759 690 2068 
Q 947 2378 1403 2484 
z
M 1172 3481 
Q 1172 3119 1398 2916 
Q 1625 2713 2034 2713 
Q 2441 2713 2670 2916 
Q 2900 3119 2900 3481 
Q 2900 3844 2670 4047 
Q 2441 4250 2034 4250 
Q 1625 4250 1398 4047 
Q 1172 3844 1172 3481 
z
" transform="scale(0.015625)"/>
       </defs>
       <use xlink:href="#DejaVuSans-38"/>
       <use xlink:href="#DejaVuSans-30" x="63.623047"/>
      </g>
     </g>
    </g>
    <g id="xtick_6">
     <g id="text_6">
      <!-- 100 -->
      <g transform="translate(933.86858 287.06881) scale(0.08 -0.08)">
       <defs>
        <path id="DejaVuSans-31" d="M 794 531 
L 1825 531 
L 1825 4091 
L 703 3866 
L 703 4441 
L 1819 4666 
L 2450 4666 
L 2450 531 
L 3481 531 
L 3481 0 
L 794 0 
L 794 531 
z
" transform="scale(0.015625)"/>
       </defs>
       <use xlink:href="#DejaVuSans-31"/>
       <use xlink:href="#DejaVuSans-30" x="63.623047"/>
       <use xlink:href="#DejaVuSans-30" x="127.246094"/>
      </g>
     </g>
    </g>
    <g id="text_7">
     <!-- Length Trimmed (bp) -->
     <g transform="translate(468.210781 300.330997) scale(0.1 -0.1)">
      <defs>
       <path id="DejaVuSans-4c" d="M 628 4666 
L 1259 4666 
L 1259 531 
L 3531 531 
L 3531 0 
L 628 0 
L 628 4666 
z
" transform="scale(0.015625)"/>
       <path id="DejaVuSans-65" d="M 3597 1894 
L 3597 1613 
L 953 1613 
Q 991 1019 1311 708 
Q 1631 397 2203 397 
Q 2534 397 2845 478 
Q 3156 559 3463 722 
L 3463 178 
Q 3153 47 2828 -22 
Q 2503 -91 2169 -91 
Q 1331 -91 842 396 
Q 353 884 353 1716 
Q 353 2575 817 3079 
Q 1281 3584 2069 3584 
Q 2775 3584 3186 3129 
Q 3597 2675 3597 1894 
z
M 3022 2063 
Q 3016 2534 2758 2815 
Q 2500 3097 2075 3097 
Q 1594 3097 1305 2825 
Q 1016 2553 972 2059 
L 3022 2063 
z
" transform="scale(0.015625)"/>
       <path id="DejaVuSans-6e" d="M 3513 2113 
L 3513 0 
L 2938 0 
L 2938 2094 
Q 2938 2591 2744 2837 
Q 2550 3084 2163 3084 
Q 1697 3084 1428 2787 
Q 1159 2491 1159 1978 
L 1159 0 
L 581 0 
L 581 3500 
L 1159 3500 
L 1159 2956 
Q 1366 3272 1645 3428 
Q 1925 3584 2291 3584 
Q 2894 3584 3203 3211 
Q 3513 2838 3513 2113 
z
" transform="scale(0.015625)"/>
       <path id="DejaVuSans-67" d="M 2906 1791 
Q 2906 2416 2648 2759 
Q 2391 3103 1925 3103 
Q 1463 3103 1205 2759 
Q 947 2416 947 1791 
Q 947 1169 1205 825 
Q 1463 481 1925 481 
Q 2391 481 2648 825 
Q 2906 1169 2906 1791 
z
M 3481 434 
Q 3481 -459 3084 -895 
Q 2688 -1331 1869 -1331 
Q 1566 -1331 1297 -1286 
Q 1028 -1241 775 -1147 
L 775 -588 
Q 1028 -725 1275 -790 
Q 1522 -856 1778 -856 
Q 2344 -856 2625 -561 
Q 2906 -266 2906 331 
L 2906 616 
Q 2728 306 2450 153 
Q 2172 0 1784 0 
Q 1141 0 747 490 
Q 353 981 353 1791 
Q 353 2603 747 3093 
Q 1141 3584 1784 3584 
Q 2172 3584 2450 3431 
Q 2728 3278 2906 2969 
L 2906 3500 
L 3481 3500 
L 3481 434 
z
" transform="scale(0.015625)"/>
       <path id="DejaVuSans-74" d="M 1172 4494 
L 1172 3500 
L 2356 3500 
L 2356 3053 
L 1172 3053 
L 1172 1153 
Q 1172 725 1289 603 
Q 1406 481 1766 481 
L 2356 481 
L 2356 0 
L 1766 0 
Q 1100 0 847 248 
Q 594 497 594 1153 
L 594 3053 
L 172 3053 
L 172 3500 
L 594 3500 
L 594 4494 
L 1172 4494 
z
" transform="scale(0.015625)"/>
       <path id="DejaVuSans-68" d="M 3513 2113 
L 3513 0 
L 2938 0 
L 2938 2094 
Q 2938 2591 2744 2837 
Q 2550 3084 2163 3084 
Q 1697 3084 1428 2787 
Q 1159 2491 1159 1978 
L 1159 0 
L 581 0 
L 581 4863 
L 1159 4863 
L 1159 2956 
Q 1366 3272 1645 3428 
Q 1925 3584 2291 3584 
Q 2894 3584 3203 3211 
Q 3513 2838 3513 2113 
z
" transform="scale(0.015625)"/>
       <path id="DejaVuSans-20" transform="scale(0.015625)"/>
       <path id="DejaVuSans-54" d="M -19 4666 
L 3928 4666 
L 3928 4134 
L 2272 4134 
L 2272 0 
L 1638 0 
L 1638 4134 
L -19 4134 
L -19 4666 
z
" transform="scale(0.015625)"/>
       <path id="DejaVuSans-72" d="M 2631 2963 
Q 2534 3019 2420 3045 
Q 2306 3072 2169 3072 
Q 1681 3072 1420 2755 
Q 1159 2438 1159 1844 
L 1159 0 
L 581 0 
L 581 3500 
L 1159 3500 
L 1159 2956 
Q 1341 3275 1631 3429 
Q 1922 3584 2338 3584 
Q 2397 3584 2469 3576 
Q 2541 3569 2628 3553 
L 2631 2963 
z
" transform="scale(0.015625)"/>
       <path id="DejaVuSans-69" d="M 603 3500 
L 1178 3500 
L 1178 0 
L 603 0 
L 603 3500 
z
M 603 4863 
L 1178 4863 
L 1178 4134 
L 603 4134 
L 603 4863 
z
" transform="scale(0.015625)"/>
       <path id="DejaVuSans-6d" d="M 3328 2828 
Q 3544 3216 3844 3400 
Q 4144 3584 4550 3584 
Q 5097 3584 5394 3201 
Q 5691 2819 5691 2113 
L 5691 0 
L 5113 0 
L 5113 2094 
Q 5113 2597 4934 2840 
Q 4756 3084 4391 3084 
Q 3944 3084 3684 2787 
Q 3425 2491 3425 1978 
L 3425 0 
L 2847 0 
L 2847 2094 
Q 2847 2600 2669 2842 
Q 2491 3084 2119 3084 
Q 1678 3084 1418 2786 
Q 1159 2488 1159 1978 
L 1159 0 
L 581 0 
L 581 3500 
L 1159 3500 
L 1159 2956 
Q 1356 3278 1631 3431 
Q 1906 3584 2284 3584 
Q 2666 3584 2933 3390 
Q 3200 3197 3328 2828 
z
" transform="scale(0.015625)"/>
       <path id="DejaVuSans-64" d="M 2906 2969 
L 2906 4863 
L 3481 4863 
L 3481 0 
L 2906 0 
L 2906 525 
Q 2725 213 2448 61 
Q 2172 -91 1784 -91 
Q 1150 -91 751 415 
Q 353 922 353 1747 
Q 353 2572 751 3078 
Q 1150 3584 1784 3584 
Q 2172 3584 2448 3432 
Q 2725 3281 2906 2969 
z
M 947 1747 
Q 947 1113 1208 752 
Q 1469 391 1925 391 
Q 2381 391 2643 752 
Q 2906 1113 2906 1747 
Q 2906 2381 2643 2742 
Q 2381 3103 1925 3103 
Q 1469 3103 1208 2742 
Q 947 2381 947 1747 
z
" transform="scale(0.015625)"/>
       <path id="DejaVuSans-28" d="M 1984 4856 
Q 1566 4138 1362 3434 
Q 1159 2731 1159 2009 
Q 1159 1288 1364 580 
Q 1569 -128 1984 -844 
L 1484 -844 
Q 1016 -109 783 600 
Q 550 1309 550 2009 
Q 550 2706 781 3412 
Q 1013 4119 1484 4856 
L 1984 4856 
z
" transform="scale(0.015625)"/>
       <path id="DejaVuSans-62" d="M 3116 1747 
Q 3116 2381 2855 2742 
Q 2594 3103 2138 3103 
Q 1681 3103 1420 2742 
Q 1159 2381 1159 1747 
Q 1159 1113 1420 752 
Q 1681 391 2138 391 
Q 2594 391 2855 752 
Q 3116 1113 3116 1747 
z
M 1159 2969 
Q 1341 3281 1617 3432 
Q 1894 3584 2278 3584 
Q 2916 3584 3314 3078 
Q 3713 2572 3713 1747 
Q 3713 922 3314 415 
Q 2916 -91 2278 -91 
Q 1894 -91 1617 61 
Q 1341 213 1159 525 
L 1159 0 
L 581 0 
L 581 4863 
L 1159 4863 
L 1159 2969 
z
" transform="scale(0.015625)"/>
       <path id="DejaVuSans-70" d="M 1159 525 
L 1159 -1331 
L 581 -1331 
L 581 3500 
L 1159 3500 
L 1159 2969 
Q 1341 3281 1617 3432 
Q 1894 3584 2278 3584 
Q 2916 3584 3314 3078 
Q 3713 2572 3713 1747 
Q 3713 922 3314 415 
Q 2916 -91 2278 -91 
Q 1894 -91 1617 61 
Q 1341 213 1159 525 
z
M 3116 1747 
Q 3116 2381 2855 2742 
Q 2594 3103 2138 3103 
Q 1681 3103 1420 2742 
Q 1159 2381 1159 1747 
Q 1159 1113 1420 752 
Q 1681 391 2138 391 
Q 2594 391 2855 752 
Q 3116 1113 3116 1747 
z
" transform="scale(0.015625)"/>
       <path id="DejaVuSans-29" d="M 513 4856 
L 1013 4856 
Q 1481 4119 1714 3412 
Q 1947 2706 1947 2009 
Q 1947 1309 1714 600 
Q 1481 -109 1013 -844 
L 513 -844 
Q 928 -128 1133 580 
Q 1338 1288 1338 2009 
Q 1338 2731 1133 3434 
Q 928 4138 513 4856 
z
" transform="scale(0.015625)"/>
      </defs>
      <use xlink:href="#DejaVuSans-4c"/>
      <use xlink:href="#DejaVuSans-65" x="53.962891"/>
      <use xlink:href="#DejaVuSans-6e" x="115.486328"/>
      <use xlink:href="#DejaVuSans-67" x="178.865234"/>
      <use xlink:href="#DejaVuSans-74" x="242.341797"/>
      <use xlink:href="#DejaVuSans-68" x="281.550781"/>
      <use xlink:href="#DejaVuSans-20" x="344.929688"/>
      <use xlink:href="#DejaVuSans-54" x="376.716797"/>
      <use xlink:href="#DejaVuSans-72" x="423.050781"/>
      <use xlink:href="#DejaVuSans-69" x="464.164062"/>
      <use xlink:href="#DejaVuSans-6d" x="491.947266"/>
      <use xlink:href="#DejaVuSans-6d" x="589.359375"/>
      <use xlink:href="#DejaVuSans-65" x="686.771484"/>
      <use xlink:href="#DejaVuSans-64" x="748.294922"/>
      <use xlink:href="#DejaVuSans-20" x="811.771484"/>
      <use xlink:href="#DejaVuSans-28" x="843.558594"/>
      <use xlink:href="#DejaVuSans-62" x="882.572266"/>
      <use xlink:href="#DejaVuSans-70" x="946.048828"/>
      <use xlink:href="#DejaVuSans-29" x="1009.525391"/>
     </g>
    </g>
   </g>
   <g id="matplotlib.axis_2">
    <g id="ytick_1">
     <g id="line2d_1">
      <path d="M 48.238125 273.99006 
L 993.038125 273.99006 
" clip-path="url(#pc8000625a2)" style="fill: none; stroke: #dedede; stroke-linecap: square"/>
     </g>
     <g id="text_8">
      <!-- 0 -->
      <g transform="translate(36.148125 277.029435) scale(0.08 -0.08)">
       <use xlink:href="#DejaVuSans-30"/>
      </g>
     </g>
    </g>
    <g id="ytick_2">
     <g id="line2d_2">
      <path d="M 48.238125 242.63944 
L 993.038125 242.63944 
" clip-path="url(#pc8000625a2)" style="fill: none; stroke: #dedede; stroke-linecap: square"/>
     </g>
     <g id="text_9">
      <!-- 1000 -->
      <g transform="translate(20.878125 245.678815) scale(0.08 -0.08)">
       <use xlink:href="#DejaVuSans-31"/>
       <use xlink:href="#DejaVuSans-30" x="63.623047"/>
       <use xlink:href="#DejaVuSans-30" x="127.246094"/>
       <use xlink:href="#DejaVuSans-30" x="190.869141"/>
      </g>
     </g>
    </g>
    <g id="ytick_3">
     <g id="line2d_3">
      <path d="M 48.238125 211.288821 
L 993.038125 211.288821 
" clip-path="url(#pc8000625a2)" style="fill: none; stroke: #dedede; stroke-linecap: square"/>
     </g>
     <g id="text_10">
      <!-- 2000 -->
      <g transform="translate(20.878125 214.328196) scale(0.08 -0.08)">
       <use xlink:href="#DejaVuSans-32"/>
       <use xlink:href="#DejaVuSans-30" x="63.623047"/>
       <use xlink:href="#DejaVuSans-30" x="127.246094"/>
       <use xlink:href="#DejaVuSans-30" x="190.869141"/>
      </g>
     </g>
    </g>
    <g id="ytick_4">
     <g id="line2d_4">
      <path d="M 48.238125 179.938201 
L 993.038125 179.938201 
" clip-path="url(#pc8000625a2)" style="fill: none; stroke: #dedede; stroke-linecap: square"/>
     </g>
     <g id="text_11">
      <!-- 3000 -->
      <g transform="translate(20.878125 182.977576) scale(0.08 -0.08)">
       <defs>
        <path id="DejaVuSans-33" d="M 2597 2516 
Q 3050 2419 3304 2112 
Q 3559 1806 3559 1356 
Q 3559 666 3084 287 
Q 2609 -91 1734 -91 
Q 1441 -91 1130 -33 
Q 819 25 488 141 
L 488 750 
Q 750 597 1062 519 
Q 1375 441 1716 441 
Q 2309 441 2620 675 
Q 2931 909 2931 1356 
Q 2931 1769 2642 2001 
Q 2353 2234 1838 2234 
L 1294 2234 
L 1294 2753 
L 1863 2753 
Q 2328 2753 2575 2939 
Q 2822 3125 2822 3475 
Q 2822 3834 2567 4026 
Q 2313 4219 1838 4219 
Q 1578 4219 1281 4162 
Q 984 4106 628 3988 
L 628 4550 
Q 988 4650 1302 4700 
Q 1616 4750 1894 4750 
Q 2613 4750 3031 4423 
Q 3450 4097 3450 3541 
Q 3450 3153 3228 2886 
Q 3006 2619 2597 2516 
z
" transform="scale(0.015625)"/>
       </defs>
       <use xlink:href="#DejaVuSans-33"/>
       <use xlink:href="#DejaVuSans-30" x="63.623047"/>
       <use xlink:href="#DejaVuSans-30" x="127.246094"/>
       <use xlink:href="#DejaVuSans-30" x="190.869141"/>
      </g>
     </g>
    </g>
    <g id="ytick_5">
     <g id="line2d_5">
      <path d="M 48.238125 148.587582 
L 993.038125 148.587582 
" clip-path="url(#pc8000625a2)" style="fill: none; stroke: #dedede; stroke-linecap: square"/>
     </g>
     <g id="text_12">
      <!-- 4000 -->
      <g transform="translate(20.878125 151.626957) scale(0.08 -0.08)">
       <use xlink:href="#DejaVuSans-34"/>
       <use xlink:href="#DejaVuSans-30" x="63.623047"/>
       <use xlink:href="#DejaVuSans-30" x="127.246094"/>
       <use xlink:href="#DejaVuSans-30" x="190.869141"/>
      </g>
     </g>
    </g>
    <g id="ytick_6">
     <g id="line2d_6">
      <path d="M 48.238125 117.236962 
L 993.038125 117.236962 
" clip-path="url(#pc8000625a2)" style="fill: none; stroke: #dedede; stroke-linecap: square"/>
     </g>
     <g id="text_13">
      <!-- 5000 -->
      <g transform="translate(20.878125 120.276337) scale(0.08 -0.08)">
       <defs>
        <path id="DejaVuSans-35" d="M 691 4666 
L 3169 4666 
L 3169 4134 
L 1269 4134 
L 1269 2991 
Q 1406 3038 1543 3061 
Q 1681 3084 1819 3084 
Q 2600 3084 3056 2656 
Q 3513 2228 3513 1497 
Q 3513 744 3044 326 
Q 2575 -91 1722 -91 
Q 1428 -91 1123 -41 
Q 819 9 494 109 
L 494 744 
Q 775 591 1075 516 
Q 1375 441 1709 441 
Q 2250 441 2565 725 
Q 2881 1009 2881 1497 
Q 2881 1984 2565 2268 
Q 2250 2553 1709 2553 
Q 1456 2553 1204 2497 
Q 953 2441 691 2322 
L 691 4666 
z
" transform="scale(0.015625)"/>
       </defs>
       <use xlink:href="#DejaVuSans-35"/>
       <use xlink:href="#DejaVuSans-30" x="63.623047"/>
       <use xlink:href="#DejaVuSans-30" x="127.246094"/>
       <use xlink:href="#DejaVuSans-30" x="190.869141"/>
      </g>
     </g>
    </g>
    <g id="ytick_7">
     <g id="line2d_7">
      <path d="M 48.238125 85.886342 
L 993.038125 85.886342 
" clip-path="url(#pc8000625a2)" style="fill: none; stroke: #dedede; stroke-linecap: square"/>
     </g>
     <g id="text_14">
      <!-- 6000 -->
      <g transform="translate(20.878125 88.925717) scale(0.08 -0.08)">
       <use xlink:href="#DejaVuSans-36"/>
       <use xlink:href="#DejaVuSans-30" x="63.623047"/>
       <use xlink:href="#DejaVuSans-30" x="127.246094"/>
       <use xlink:href="#DejaVuSans-30" x="190.869141"/>
      </g>
     </g>
    </g>
    <g id="ytick_8">
     <g id="line2d_8">
      <path d="M 48.238125 54.535723 
L 993.038125 54.535723 
" clip-path="url(#pc8000625a2)" style="fill: none; stroke: #dedede; stroke-linecap: square"/>
     </g>
     <g id="text_15">
      <!-- 7000 -->
      <g transform="translate(20.878125 57.575098) scale(0.08 -0.08)">
       <defs>
        <path id="DejaVuSans-37" d="M 525 4666 
L 3525 4666 
L 3525 4397 
L 1831 0 
L 1172 0 
L 2766 4134 
L 525 4134 
L 525 4666 
z
" transform="scale(0.015625)"/>
       </defs>
       <use xlink:href="#DejaVuSans-37"/>
       <use xlink:href="#DejaVuSans-30" x="63.623047"/>
       <use xlink:href="#DejaVuSans-30" x="127.246094"/>
       <use xlink:href="#DejaVuSans-30" x="190.869141"/>
      </g>
     </g>
    </g>
    <g id="text_16">
     <!-- Observed / Expected -->
     <g transform="translate(14.798438 204.985679) rotate(-90) scale(0.1 -0.1)">
      <defs>
       <path id="DejaVuSans-4f" d="M 2522 4238 
Q 1834 4238 1429 3725 
Q 1025 3213 1025 2328 
Q 1025 1447 1429 934 
Q 1834 422 2522 422 
Q 3209 422 3611 934 
Q 4013 1447 4013 2328 
Q 4013 3213 3611 3725 
Q 3209 4238 2522 4238 
z
M 2522 4750 
Q 3503 4750 4090 4092 
Q 4678 3434 4678 2328 
Q 4678 1225 4090 567 
Q 3503 -91 2522 -91 
Q 1538 -91 948 565 
Q 359 1222 359 2328 
Q 359 3434 948 4092 
Q 1538 4750 2522 4750 
z
" transform="scale(0.015625)"/>
       <path id="DejaVuSans-73" d="M 2834 3397 
L 2834 2853 
Q 2591 2978 2328 3040 
Q 2066 3103 1784 3103 
Q 1356 3103 1142 2972 
Q 928 2841 928 2578 
Q 928 2378 1081 2264 
Q 1234 2150 1697 2047 
L 1894 2003 
Q 2506 1872 2764 1633 
Q 3022 1394 3022 966 
Q 3022 478 2636 193 
Q 2250 -91 1575 -91 
Q 1294 -91 989 -36 
Q 684 19 347 128 
L 347 722 
Q 666 556 975 473 
Q 1284 391 1588 391 
Q 1994 391 2212 530 
Q 2431 669 2431 922 
Q 2431 1156 2273 1281 
Q 2116 1406 1581 1522 
L 1381 1569 
Q 847 1681 609 1914 
Q 372 2147 372 2553 
Q 372 3047 722 3315 
Q 1072 3584 1716 3584 
Q 2034 3584 2315 3537 
Q 2597 3491 2834 3397 
z
" transform="scale(0.015625)"/>
       <path id="DejaVuSans-76" d="M 191 3500 
L 800 3500 
L 1894 563 
L 2988 3500 
L 3597 3500 
L 2284 0 
L 1503 0 
L 191 3500 
z
" transform="scale(0.015625)"/>
       <path id="DejaVuSans-2f" d="M 1625 4666 
L 2156 4666 
L 531 -594 
L 0 -594 
L 1625 4666 
z
" transform="scale(0.015625)"/>
       <path id="DejaVuSans-45" d="M 628 4666 
L 3578 4666 
L 3578 4134 
L 1259 4134 
L 1259 2753 
L 3481 2753 
L 3481 2222 
L 1259 2222 
L 1259 531 
L 3634 531 
L 3634 0 
L 628 0 
L 628 4666 
z
" transform="scale(0.015625)"/>
       <path id="DejaVuSans-78" d="M 3513 3500 
L 2247 1797 
L 3578 0 
L 2900 0 
L 1881 1375 
L 863 0 
L 184 0 
L 1544 1831 
L 300 3500 
L 978 3500 
L 1906 2253 
L 2834 3500 
L 3513 3500 
z
" transform="scale(0.015625)"/>
       <path id="DejaVuSans-63" d="M 3122 3366 
L 3122 2828 
Q 2878 2963 2633 3030 
Q 2388 3097 2138 3097 
Q 1578 3097 1268 2742 
Q 959 2388 959 1747 
Q 959 1106 1268 751 
Q 1578 397 2138 397 
Q 2388 397 2633 464 
Q 2878 531 3122 666 
L 3122 134 
Q 2881 22 2623 -34 
Q 2366 -91 2075 -91 
Q 1284 -91 818 406 
Q 353 903 353 1747 
Q 353 2603 823 3093 
Q 1294 3584 2113 3584 
Q 2378 3584 2631 3529 
Q 2884 3475 3122 3366 
z
" transform="scale(0.015625)"/>
      </defs>
      <use xlink:href="#DejaVuSans-4f"/>
      <use xlink:href="#DejaVuSans-62" x="78.710938"/>
      <use xlink:href="#DejaVuSans-73" x="142.1875"/>
      <use xlink:href="#DejaVuSans-65" x="194.287109"/>
      <use xlink:href="#DejaVuSans-72" x="255.810547"/>
      <use xlink:href="#DejaVuSans-76" x="296.923828"/>
      <use xlink:href="#DejaVuSans-65" x="356.103516"/>
      <use xlink:href="#DejaVuSans-64" x="417.626953"/>
      <use xlink:href="#DejaVuSans-20" x="481.103516"/>
      <use xlink:href="#DejaVuSans-2f" x="512.890625"/>
      <use xlink:href="#DejaVuSans-20" x="546.582031"/>
      <use xlink:href="#DejaVuSans-45" x="578.369141"/>
      <use xlink:href="#DejaVuSans-78" x="641.552734"/>
      <use xlink:href="#DejaVuSans-70" x="700.732422"/>
      <use xlink:href="#DejaVuSans-65" x="764.208984"/>
      <use xlink:href="#DejaVuSans-63" x="825.732422"/>
      <use xlink:href="#DejaVuSans-74" x="880.712891"/>
      <use xlink:href="#DejaVuSans-65" x="919.921875"/>
      <use xlink:href="#DejaVuSans-64" x="981.445312"/>
     </g>
    </g>
   </g>
   <g id="line2d_9">
    <path d="M 91.18358 273.973751 
L 99.77267 273.965471 
L 108.361761 273.962953 
L 116.950852 273.92601 
L 125.539943 273.773782 
L 134.129034 273.153615 
L 142.718125 270.83958 
L 151.307216 261.679717 
L 159.896307 229.393804 
L 168.485398 111.59385 
L 177.074489 257.436933 
L 185.66358 258.628256 
L 194.25267 259.944982 
L 202.841761 259.725528 
L 211.430852 260.791449 
L 220.019943 262.202227 
L 228.609034 261.920071 
L 237.198125 263.080044 
L 245.787216 264.522173 
L 254.376307 263.142746 
L 262.965398 264.804328 
L 271.554489 266.497262 
L 280.14358 266.559963 
L 288.73267 266.810768 
L 297.321761 266.779417 
L 305.910852 267.030222 
L 314.499943 268.472351 
L 323.089034 268.973961 
L 331.678125 269.036662 
L 340.267216 269.695025 
L 348.856307 270.384739 
L 357.445398 269.695025 
L 366.034489 271.043102 
L 374.62358 271.074452 
L 383.21267 271.293907 
L 391.801761 271.513361 
L 400.390852 271.074452 
L 408.979943 271.638764 
L 417.569034 271.858218 
L 426.158125 271.95227 
L 434.747216 271.544712 
L 443.336307 272.328477 
L 451.925398 272.736035 
L 460.514489 271.043102 
L 469.10358 273.049541 
L 477.69267 273.112243 
L 486.281761 272.736035 
L 494.870852 272.171724 
L 503.459943 271.95227 
L 512.049034 272.297127 
L 520.638125 271.826867 
L 529.227216 272.171724 
L 537.816307 271.826867 
L 546.405398 272.892788 
L 554.994489 272.171724 
L 563.58358 272.203075 
L 572.17267 271.889568 
L 580.761761 272.297127 
L 589.350852 272.359828 
L 597.939943 272.610633 
L 606.529034 273.143593 
L 615.118125 273.206295 
L 623.707216 273.112243 
L 632.296307 273.268996 
L 640.885398 273.48845 
L 649.474489 272.98684 
L 658.06358 273.143593 
L 666.65267 273.049541 
L 675.241761 272.673334 
L 683.830852 273.206295 
L 692.419943 273.237645 
L 701.009034 273.331697 
L 709.598125 273.300346 
L 718.187216 273.363048 
L 726.776307 273.237645 
L 735.365398 273.394398 
L 743.954489 273.237645 
L 752.54358 273.331697 
L 761.13267 273.268996 
L 769.721761 273.206295 
L 778.310852 273.206295 
L 786.899943 273.143593 
L 795.489034 273.174944 
L 804.078125 272.924139 
L 812.667216 272.48523 
L 821.256307 272.45388 
L 829.845398 271.826867 
L 838.434489 272.203075 
L 847.02358 272.234425 
L 855.61267 272.234425 
L 864.201761 271.98362 
L 872.790852 269.44422 
L 881.379943 271.607413 
L 889.969034 271.231205 
L 898.558125 271.262556 
L 907.147216 270.133934 
L 915.736307 269.726376 
L 924.325398 268.817208 
L 932.914489 272.641983 
L 941.50358 270.823647 
L 950.09267 43.030045 
" clip-path="url(#pc8000625a2)" style="fill: none; stroke: #7cb5ec; stroke-linecap: square"/>
   </g>
   <g id="line2d_10">
    <path d="M 91.18358 273.972435 
L 99.77267 273.966555 
L 108.361761 273.954606 
L 116.950852 273.919589 
L 125.539943 273.739768 
L 134.129034 273.136912 
L 142.718125 270.808743 
L 151.307216 261.805119 
L 159.896307 229.237051 
L 168.485398 110.966838 
L 177.074489 257.217479 
L 185.66358 257.81314 
L 194.25267 260.85415 
L 202.841761 259.255269 
L 211.430852 261.042254 
L 220.019943 262.139526 
L 228.609034 261.700617 
L 237.198125 263.048694 
L 245.787216 249.317122 
L 254.376307 268.315598 
L 262.965398 271.701465 
L 271.554489 268.221546 
L 280.14358 266.215106 
L 288.73267 260.979553 
L 297.321761 271.325257 
L 305.910852 266.998872 
L 314.499943 253.800261 
L 323.089034 272.265776 
L 331.678125 265.149185 
L 340.267216 271.419309 
L 348.856307 273.48845 
L 357.445398 269.820428 
L 366.034489 271.576062 
L 374.62358 261.575215 
L 383.21267 272.359828 
L 391.801761 271.262556 
L 400.390852 271.889568 
L 408.979943 273.268996 
L 417.569034 269.820428 
L 426.158125 273.268996 
L 434.747216 270.94905 
L 443.336307 273.143593 
L 451.925398 269.193415 
L 460.514489 273.707904 
L 469.10358 269.381519 
L 477.69267 273.049541 
L 486.281761 273.864658 
L 494.870852 272.234425 
L 503.459943 273.770606 
L 512.049034 273.143593 
L 520.638125 273.519801 
L 529.227216 272.297127 
L 537.816307 273.958709 
L 546.405398 273.770606 
L 554.994489 273.080892 
L 563.58358 273.707904 
L 572.17267 272.359828 
L 580.761761 273.519801 
L 589.350852 273.300346 
L 597.939943 273.770606 
L 606.529034 273.864658 
L 615.118125 273.645203 
L 623.707216 273.896008 
L 632.296307 273.770606 
L 640.885398 273.927359 
L 649.474489 273.613853 
L 658.06358 273.864658 
L 666.65267 273.927359 
L 675.241761 273.801956 
L 683.830852 273.519801 
L 692.419943 273.958709 
L 701.009034 273.770606 
L 709.598125 273.645203 
L 718.187216 273.645203 
L 726.776307 273.833307 
L 735.365398 273.896008 
L 743.954489 273.739255 
L 752.54358 273.676554 
L 761.13267 273.519801 
L 769.721761 273.394398 
L 778.310852 273.363048 
L 786.899943 273.237645 
L 795.489034 273.143593 
L 804.078125 273.018191 
L 812.667216 272.516581 
L 821.256307 272.48523 
L 829.845398 271.98362 
L 838.434489 271.98362 
L 847.02358 272.579282 
L 855.61267 272.171724 
L 864.201761 271.889568 
L 872.790852 269.726376 
L 881.379943 271.795517 
L 889.969034 271.074452 
L 898.558125 271.544712 
L 907.147216 270.071233 
L 915.736307 269.600973 
L 924.325398 269.099363 
L 932.914489 272.736035 
L 941.50358 273.425749 
L 950.09267 262.797889 
" clip-path="url(#pc8000625a2)" style="fill: none; stroke: #434348; stroke-linecap: square"/>
   </g>
   <g id="line2d_11">
    <path d="M 91.18358 273.973354 
L 99.77267 273.965235 
L 108.361761 273.962431 
L 116.950852 273.918385 
L 125.539943 273.74041 
L 134.129034 273.133057 
L 142.718125 270.577468 
L 151.307216 260.948202 
L 159.896307 225.318223 
L 168.485398 99.994121 
L 177.074489 255.649948 
L 185.66358 257.217479 
L 194.25267 257.342881 
L 202.841761 260.101736 
L 211.430852 259.255269 
L 220.019943 259.631476 
L 228.609034 260.509294 
L 237.198125 262.421681 
L 245.787216 262.797889 
L 254.376307 262.014123 
L 262.965398 262.609785 
L 271.554489 264.647575 
L 280.14358 265.337289 
L 288.73267 265.964301 
L 297.321761 266.497262 
L 305.910852 266.027003 
L 314.499943 267.845339 
L 323.089034 267.092924 
L 331.678125 267.688585 
L 340.267216 268.284247 
L 348.856307 269.193415 
L 357.445398 269.099363 
L 366.034489 269.883129 
L 374.62358 270.353388 
L 383.21267 270.259336 
L 391.801761 270.384739 
L 400.390852 270.917699 
L 408.979943 270.94905 
L 417.569034 271.105803 
L 426.158125 271.544712 
L 434.747216 271.670114 
L 443.336307 271.889568 
L 451.925398 271.638764 
L 460.514489 270.854998 
L 469.10358 272.98684 
L 477.69267 272.48523 
L 486.281761 272.767386 
L 494.870852 270.604193 
L 503.459943 271.293907 
L 512.049034 270.917699 
L 520.638125 271.011751 
L 529.227216 270.290687 
L 537.816307 269.318818 
L 546.405398 271.795517 
L 554.994489 271.199855 
L 563.58358 270.823647 
L 572.17267 270.854998 
L 580.761761 272.297127 
L 589.350852 273.018191 
L 597.939943 273.143593 
L 606.529034 273.268996 
L 615.118125 272.98684 
L 623.707216 273.143593 
L 632.296307 273.394398 
L 640.885398 273.331697 
L 649.474489 273.331697 
L 658.06358 273.143593 
L 666.65267 272.641983 
L 675.241761 272.359828 
L 683.830852 272.140373 
L 692.419943 272.830087 
L 701.009034 272.48523 
L 709.598125 273.237645 
L 718.187216 273.080892 
L 726.776307 273.425749 
L 735.365398 273.613853 
L 743.954489 273.300346 
L 752.54358 273.425749 
L 761.13267 273.080892 
L 769.721761 273.268996 
L 778.310852 273.425749 
L 786.899943 273.331697 
L 795.489034 273.049541 
L 804.078125 273.143593 
L 812.667216 272.704685 
L 821.256307 272.641983 
L 829.845398 272.328477 
L 838.434489 272.516581 
L 847.02358 272.046322 
L 855.61267 272.767386 
L 864.201761 272.359828 
L 872.790852 271.356608 
L 881.379943 272.297127 
L 889.969034 272.45388 
L 898.558125 272.046322 
L 907.147216 271.387959 
L 915.736307 271.45066 
L 924.325398 270.44744 
L 932.914489 273.331697 
L 941.50358 271.889568 
L 950.09267 125.105967 
" clip-path="url(#pc8000625a2)" style="fill: none; stroke: #90ed7d; stroke-linecap: square"/>
   </g>
   <g id="line2d_12">
    <path d="M 91.18358 273.97191 
L 99.77267 273.96512 
L 108.361761 273.953463 
L 116.950852 273.915978 
L 125.539943 273.715702 
L 134.129034 273.106075 
L 142.718125 270.567189 
L 151.307216 261.115406 
L 159.896307 225.083093 
L 168.485398 102.815677 
L 177.074489 255.618597 
L 185.66358 256.841271 
L 194.25267 258.001244 
L 202.841761 259.944982 
L 211.430852 259.129866 
L 220.019943 259.756879 
L 228.609034 259.976333 
L 237.198125 262.108175 
L 245.787216 246.464216 
L 254.376307 267.312378 
L 262.965398 271.262556 
L 271.554489 266.340509 
L 280.14358 265.556743 
L 288.73267 261.073605 
L 297.321761 270.94905 
L 305.910852 265.744847 
L 314.499943 258.157997 
L 323.089034 270.416089 
L 331.678125 251.699769 
L 340.267216 271.513361 
L 348.856307 272.736035 
L 357.445398 270.980401 
L 366.034489 267.782637 
L 374.62358 273.519801 
L 383.21267 271.105803 
L 391.801761 266.779417 
L 400.390852 267.281027 
L 408.979943 271.168504 
L 417.569034 266.246457 
L 426.158125 272.610633 
L 434.747216 262.421681 
L 443.336307 273.645203 
L 451.925398 273.018191 
L 460.514489 273.613853 
L 469.10358 269.005311 
L 477.69267 273.519801 
L 486.281761 273.613853 
L 494.870852 271.325257 
L 503.459943 273.48845 
L 512.049034 272.516581 
L 520.638125 273.363048 
L 529.227216 271.544712 
L 537.816307 273.833307 
L 546.405398 272.98684 
L 554.994489 272.140373 
L 563.58358 273.645203 
L 572.17267 272.203075 
L 580.761761 273.174944 
L 589.350852 273.268996 
L 597.939943 273.48845 
L 606.529034 273.927359 
L 615.118125 273.833307 
L 623.707216 273.425749 
L 632.296307 273.739255 
L 640.885398 273.801956 
L 649.474489 273.676554 
L 658.06358 273.927359 
L 666.65267 273.707904 
L 675.241761 273.864658 
L 683.830852 272.704685 
L 692.419943 273.707904 
L 701.009034 273.770606 
L 709.598125 273.613853 
L 718.187216 273.833307 
L 726.776307 273.958709 
L 735.365398 273.927359 
L 743.954489 273.707904 
L 752.54358 273.551151 
L 761.13267 273.394398 
L 769.721761 273.300346 
L 778.310852 273.582502 
L 786.899943 273.300346 
L 795.489034 272.892788 
L 804.078125 273.206295 
L 812.667216 272.704685 
L 821.256307 272.798736 
L 829.845398 272.265776 
L 838.434489 272.48523 
L 847.02358 272.359828 
L 855.61267 272.673334 
L 864.201761 272.328477 
L 872.790852 271.419309 
L 881.379943 272.265776 
L 889.969034 272.45388 
L 898.558125 272.140373 
L 907.147216 271.45066 
L 915.736307 271.48201 
L 924.325398 270.698245 
L 932.914489 273.300346 
L 941.50358 273.613853 
L 950.09267 266.622664 
" clip-path="url(#pc8000625a2)" style="fill: none; stroke: #f7a35c; stroke-linecap: square"/>
   </g>
   <g id="line2d_13">
    <path d="M 48.238125 273.99006 
L 993.038125 273.99006 
" clip-path="url(#pc8000625a2)" style="fill: none; stroke: #dedede; stroke-width: 2; stroke-linecap: square"/>
   </g>
   <g id="text_17">
    <!-- Cutadapt: Lengths of Trimmed Sequences (3' end) -->
    <g transform="translate(319.285625 19.3575) scale(0.16 -0.16)">
     <defs>
      <path id="DejaVuSans-43" d="M 4122 4306 
L 4122 3641 
Q 3803 3938 3442 4084 
Q 3081 4231 2675 4231 
Q 1875 4231 1450 3742 
Q 1025 3253 1025 2328 
Q 1025 1406 1450 917 
Q 1875 428 2675 428 
Q 3081 428 3442 575 
Q 3803 722 4122 1019 
L 4122 359 
Q 3791 134 3420 21 
Q 3050 -91 2638 -91 
Q 1578 -91 968 557 
Q 359 1206 359 2328 
Q 359 3453 968 4101 
Q 1578 4750 2638 4750 
Q 3056 4750 3426 4639 
Q 3797 4528 4122 4306 
z
" transform="scale(0.015625)"/>
      <path id="DejaVuSans-75" d="M 544 1381 
L 544 3500 
L 1119 3500 
L 1119 1403 
Q 1119 906 1312 657 
Q 1506 409 1894 409 
Q 2359 409 2629 706 
Q 2900 1003 2900 1516 
L 2900 3500 
L 3475 3500 
L 3475 0 
L 2900 0 
L 2900 538 
Q 2691 219 2414 64 
Q 2138 -91 1772 -91 
Q 1169 -91 856 284 
Q 544 659 544 1381 
z
M 1991 3584 
L 1991 3584 
z
" transform="scale(0.015625)"/>
      <path id="DejaVuSans-61" d="M 2194 1759 
Q 1497 1759 1228 1600 
Q 959 1441 959 1056 
Q 959 750 1161 570 
Q 1363 391 1709 391 
Q 2188 391 2477 730 
Q 2766 1069 2766 1631 
L 2766 1759 
L 2194 1759 
z
M 3341 1997 
L 3341 0 
L 2766 0 
L 2766 531 
Q 2569 213 2275 61 
Q 1981 -91 1556 -91 
Q 1019 -91 701 211 
Q 384 513 384 1019 
Q 384 1609 779 1909 
Q 1175 2209 1959 2209 
L 2766 2209 
L 2766 2266 
Q 2766 2663 2505 2880 
Q 2244 3097 1772 3097 
Q 1472 3097 1187 3025 
Q 903 2953 641 2809 
L 641 3341 
Q 956 3463 1253 3523 
Q 1550 3584 1831 3584 
Q 2591 3584 2966 3190 
Q 3341 2797 3341 1997 
z
" transform="scale(0.015625)"/>
      <path id="DejaVuSans-3a" d="M 750 794 
L 1409 794 
L 1409 0 
L 750 0 
L 750 794 
z
M 750 3309 
L 1409 3309 
L 1409 2516 
L 750 2516 
L 750 3309 
z
" transform="scale(0.015625)"/>
      <path id="DejaVuSans-6f" d="M 1959 3097 
Q 1497 3097 1228 2736 
Q 959 2375 959 1747 
Q 959 1119 1226 758 
Q 1494 397 1959 397 
Q 2419 397 2687 759 
Q 2956 1122 2956 1747 
Q 2956 2369 2687 2733 
Q 2419 3097 1959 3097 
z
M 1959 3584 
Q 2709 3584 3137 3096 
Q 3566 2609 3566 1747 
Q 3566 888 3137 398 
Q 2709 -91 1959 -91 
Q 1206 -91 779 398 
Q 353 888 353 1747 
Q 353 2609 779 3096 
Q 1206 3584 1959 3584 
z
" transform="scale(0.015625)"/>
      <path id="DejaVuSans-66" d="M 2375 4863 
L 2375 4384 
L 1825 4384 
Q 1516 4384 1395 4259 
Q 1275 4134 1275 3809 
L 1275 3500 
L 2222 3500 
L 2222 3053 
L 1275 3053 
L 1275 0 
L 697 0 
L 697 3053 
L 147 3053 
L 147 3500 
L 697 3500 
L 697 3744 
Q 697 4328 969 4595 
Q 1241 4863 1831 4863 
L 2375 4863 
z
" transform="scale(0.015625)"/>
      <path id="DejaVuSans-53" d="M 3425 4513 
L 3425 3897 
Q 3066 4069 2747 4153 
Q 2428 4238 2131 4238 
Q 1616 4238 1336 4038 
Q 1056 3838 1056 3469 
Q 1056 3159 1242 3001 
Q 1428 2844 1947 2747 
L 2328 2669 
Q 3034 2534 3370 2195 
Q 3706 1856 3706 1288 
Q 3706 609 3251 259 
Q 2797 -91 1919 -91 
Q 1588 -91 1214 -16 
Q 841 59 441 206 
L 441 856 
Q 825 641 1194 531 
Q 1563 422 1919 422 
Q 2459 422 2753 634 
Q 3047 847 3047 1241 
Q 3047 1584 2836 1778 
Q 2625 1972 2144 2069 
L 1759 2144 
Q 1053 2284 737 2584 
Q 422 2884 422 3419 
Q 422 4038 858 4394 
Q 1294 4750 2059 4750 
Q 2388 4750 2728 4690 
Q 3069 4631 3425 4513 
z
" transform="scale(0.015625)"/>
      <path id="DejaVuSans-71" d="M 947 1747 
Q 947 1113 1208 752 
Q 1469 391 1925 391 
Q 2381 391 2643 752 
Q 2906 1113 2906 1747 
Q 2906 2381 2643 2742 
Q 2381 3103 1925 3103 
Q 1469 3103 1208 2742 
Q 947 2381 947 1747 
z
M 2906 525 
Q 2725 213 2448 61 
Q 2172 -91 1784 -91 
Q 1150 -91 751 415 
Q 353 922 353 1747 
Q 353 2572 751 3078 
Q 1150 3584 1784 3584 
Q 2172 3584 2448 3432 
Q 2725 3281 2906 2969 
L 2906 3500 
L 3481 3500 
L 3481 -1331 
L 2906 -1331 
L 2906 525 
z
" transform="scale(0.015625)"/>
      <path id="DejaVuSans-27" d="M 1147 4666 
L 1147 2931 
L 616 2931 
L 616 4666 
L 1147 4666 
z
" transform="scale(0.015625)"/>
     </defs>
     <use xlink:href="#DejaVuSans-43"/>
     <use xlink:href="#DejaVuSans-75" x="69.824219"/>
     <use xlink:href="#DejaVuSans-74" x="133.203125"/>
     <use xlink:href="#DejaVuSans-61" x="172.412109"/>
     <use xlink:href="#DejaVuSans-64" x="233.691406"/>
     <use xlink:href="#DejaVuSans-61" x="297.167969"/>
     <use xlink:href="#DejaVuSans-70" x="358.447266"/>
     <use xlink:href="#DejaVuSans-74" x="421.923828"/>
     <use xlink:href="#DejaVuSans-3a" x="461.132812"/>
     <use xlink:href="#DejaVuSans-20" x="494.824219"/>
     <use xlink:href="#DejaVuSans-4c" x="526.611328"/>
     <use xlink:href="#DejaVuSans-65" x="580.574219"/>
     <use xlink:href="#DejaVuSans-6e" x="642.097656"/>
     <use xlink:href="#DejaVuSans-67" x="705.476562"/>
     <use xlink:href="#DejaVuSans-74" x="768.953125"/>
     <use xlink:href="#DejaVuSans-68" x="808.162109"/>
     <use xlink:href="#DejaVuSans-73" x="871.541016"/>
     <use xlink:href="#DejaVuSans-20" x="923.640625"/>
     <use xlink:href="#DejaVuSans-6f" x="955.427734"/>
     <use xlink:href="#DejaVuSans-66" x="1016.609375"/>
     <use xlink:href="#DejaVuSans-20" x="1051.814453"/>
     <use xlink:href="#DejaVuSans-54" x="1083.601562"/>
     <use xlink:href="#DejaVuSans-72" x="1129.935547"/>
     <use xlink:href="#DejaVuSans-69" x="1171.048828"/>
     <use xlink:href="#DejaVuSans-6d" x="1198.832031"/>
     <use xlink:href="#DejaVuSans-6d" x="1296.244141"/>
     <use xlink:href="#DejaVuSans-65" x="1393.65625"/>
     <use xlink:href="#DejaVuSans-64" x="1455.179688"/>
     <use xlink:href="#DejaVuSans-20" x="1518.65625"/>
     <use xlink:href="#DejaVuSans-53" x="1550.443359"/>
     <use xlink:href="#DejaVuSans-65" x="1613.919922"/>
     <use xlink:href="#DejaVuSans-71" x="1675.443359"/>
     <use xlink:href="#DejaVuSans-75" x="1738.919922"/>
     <use xlink:href="#DejaVuSans-65" x="1802.298828"/>
     <use xlink:href="#DejaVuSans-6e" x="1863.822266"/>
     <use xlink:href="#DejaVuSans-63" x="1927.201172"/>
     <use xlink:href="#DejaVuSans-65" x="1982.181641"/>
     <use xlink:href="#DejaVuSans-73" x="2043.705078"/>
     <use xlink:href="#DejaVuSans-20" x="2095.804688"/>
     <use xlink:href="#DejaVuSans-28" x="2127.591797"/>
     <use xlink:href="#DejaVuSans-33" x="2166.605469"/>
     <use xlink:href="#DejaVuSans-27" x="2230.228516"/>
     <use xlink:href="#DejaVuSans-20" x="2257.71875"/>
     <use xlink:href="#DejaVuSans-65" x="2289.505859"/>
     <use xlink:href="#DejaVuSans-6e" x="2351.029297"/>
     <use xlink:href="#DejaVuSans-64" x="2414.408203"/>
     <use xlink:href="#DejaVuSans-29" x="2477.884766"/>
    </g>
   </g>
   <g id="legend_1">
    <g id="line2d_14">
     <path d="M 55.438125 315.455394 
L 63.438125 315.455394 
L 71.438125 315.455394 
" style="fill: none; stroke: #7cb5ec; stroke-linecap: square"/>
    </g>
    <g id="text_18">
     <!-- wt_1_light_T1_1 - Adapter 1 -->
     <g transform="translate(77.838125 318.255394) scale(0.08 -0.08)">
      <defs>
       <path id="DejaVuSans-77" d="M 269 3500 
L 844 3500 
L 1563 769 
L 2278 3500 
L 2956 3500 
L 3675 769 
L 4391 3500 
L 4966 3500 
L 4050 0 
L 3372 0 
L 2619 2869 
L 1863 0 
L 1184 0 
L 269 3500 
z
" transform="scale(0.015625)"/>
       <path id="DejaVuSans-5f" d="M 3263 -1063 
L 3263 -1509 
L -63 -1509 
L -63 -1063 
L 3263 -1063 
z
" transform="scale(0.015625)"/>
       <path id="DejaVuSans-6c" d="M 603 4863 
L 1178 4863 
L 1178 0 
L 603 0 
L 603 4863 
z
" transform="scale(0.015625)"/>
       <path id="DejaVuSans-2d" d="M 313 2009 
L 1997 2009 
L 1997 1497 
L 313 1497 
L 313 2009 
z
" transform="scale(0.015625)"/>
       <path id="DejaVuSans-41" d="M 2188 4044 
L 1331 1722 
L 3047 1722 
L 2188 4044 
z
M 1831 4666 
L 2547 4666 
L 4325 0 
L 3669 0 
L 3244 1197 
L 1141 1197 
L 716 0 
L 50 0 
L 1831 4666 
z
" transform="scale(0.015625)"/>
      </defs>
      <use xlink:href="#DejaVuSans-77"/>
      <use xlink:href="#DejaVuSans-74" x="81.787109"/>
      <use xlink:href="#DejaVuSans-5f" x="120.996094"/>
      <use xlink:href="#DejaVuSans-31" x="170.996094"/>
      <use xlink:href="#DejaVuSans-5f" x="234.619141"/>
      <use xlink:href="#DejaVuSans-6c" x="284.619141"/>
      <use xlink:href="#DejaVuSans-69" x="312.402344"/>
      <use xlink:href="#DejaVuSans-67" x="340.185547"/>
      <use xlink:href="#DejaVuSans-68" x="403.662109"/>
      <use xlink:href="#DejaVuSans-74" x="467.041016"/>
      <use xlink:href="#DejaVuSans-5f" x="506.25"/>
      <use xlink:href="#DejaVuSans-54" x="556.25"/>
      <use xlink:href="#DejaVuSans-31" x="617.333984"/>
      <use xlink:href="#DejaVuSans-5f" x="680.957031"/>
      <use xlink:href="#DejaVuSans-31" x="730.957031"/>
      <use xlink:href="#DejaVuSans-20" x="794.580078"/>
      <use xlink:href="#DejaVuSans-2d" x="826.367188"/>
      <use xlink:href="#DejaVuSans-20" x="862.451172"/>
      <use xlink:href="#DejaVuSans-41" x="894.238281"/>
      <use xlink:href="#DejaVuSans-64" x="960.896484"/>
      <use xlink:href="#DejaVuSans-61" x="1024.373047"/>
      <use xlink:href="#DejaVuSans-70" x="1085.652344"/>
      <use xlink:href="#DejaVuSans-74" x="1149.128906"/>
      <use xlink:href="#DejaVuSans-65" x="1188.337891"/>
      <use xlink:href="#DejaVuSans-72" x="1249.861328"/>
      <use xlink:href="#DejaVuSans-20" x="1290.974609"/>
      <use xlink:href="#DejaVuSans-31" x="1322.761719"/>
     </g>
    </g>
    <g id="line2d_15">
     <path d="M 321.135208 315.455394 
L 329.135208 315.455394 
L 337.135208 315.455394 
" style="fill: none; stroke: #434348; stroke-linecap: square"/>
    </g>
    <g id="text_19">
     <!-- wt_1_light_T1_2 - Adapter 1 -->
     <g transform="translate(343.535208 318.255394) scale(0.08 -0.08)">
      <use xlink:href="#DejaVuSans-77"/>
      <use xlink:href="#DejaVuSans-74" x="81.787109"/>
      <use xlink:href="#DejaVuSans-5f" x="120.996094"/>
      <use xlink:href="#DejaVuSans-31" x="170.996094"/>
      <use xlink:href="#DejaVuSans-5f" x="234.619141"/>
      <use xlink:href="#DejaVuSans-6c" x="284.619141"/>
      <use xlink:href="#DejaVuSans-69" x="312.402344"/>
      <use xlink:href="#DejaVuSans-67" x="340.185547"/>
      <use xlink:href="#DejaVuSans-68" x="403.662109"/>
      <use xlink:href="#DejaVuSans-74" x="467.041016"/>
      <use xlink:href="#DejaVuSans-5f" x="506.25"/>
      <use xlink:href="#DejaVuSans-54" x="556.25"/>
      <use xlink:href="#DejaVuSans-31" x="617.333984"/>
      <use xlink:href="#DejaVuSans-5f" x="680.957031"/>
      <use xlink:href="#DejaVuSans-32" x="730.957031"/>
      <use xlink:href="#DejaVuSans-20" x="794.580078"/>
      <use xlink:href="#DejaVuSans-2d" x="826.367188"/>
      <use xlink:href="#DejaVuSans-20" x="862.451172"/>
      <use xlink:href="#DejaVuSans-41" x="894.238281"/>
      <use xlink:href="#DejaVuSans-64" x="960.896484"/>
      <use xlink:href="#DejaVuSans-61" x="1024.373047"/>
      <use xlink:href="#DejaVuSans-70" x="1085.652344"/>
      <use xlink:href="#DejaVuSans-74" x="1149.128906"/>
      <use xlink:href="#DejaVuSans-65" x="1188.337891"/>
      <use xlink:href="#DejaVuSans-72" x="1249.861328"/>
      <use xlink:href="#DejaVuSans-20" x="1290.974609"/>
      <use xlink:href="#DejaVuSans-31" x="1322.761719"/>
     </g>
    </g>
    <g id="line2d_16">
     <path d="M 586.832292 315.455394 
L 594.832292 315.455394 
L 602.832292 315.455394 
" style="fill: none; stroke: #90ed7d; stroke-linecap: square"/>
    </g>
    <g id="text_20">
     <!-- wt_2_light_T1_1 - Adapter 1 -->
     <g transform="translate(609.232292 318.255394) scale(0.08 -0.08)">
      <use xlink:href="#DejaVuSans-77"/>
      <use xlink:href="#DejaVuSans-74" x="81.787109"/>
      <use xlink:href="#DejaVuSans-5f" x="120.996094"/>
      <use xlink:href="#DejaVuSans-32" x="170.996094"/>
      <use xlink:href="#DejaVuSans-5f" x="234.619141"/>
      <use xlink:href="#DejaVuSans-6c" x="284.619141"/>
      <use xlink:href="#DejaVuSans-69" x="312.402344"/>
      <use xlink:href="#DejaVuSans-67" x="340.185547"/>
      <use xlink:href="#DejaVuSans-68" x="403.662109"/>
      <use xlink:href="#DejaVuSans-74" x="467.041016"/>
      <use xlink:href="#DejaVuSans-5f" x="506.25"/>
      <use xlink:href="#DejaVuSans-54" x="556.25"/>
      <use xlink:href="#DejaVuSans-31" x="617.333984"/>
      <use xlink:href="#DejaVuSans-5f" x="680.957031"/>
      <use xlink:href="#DejaVuSans-31" x="730.957031"/>
      <use xlink:href="#DejaVuSans-20" x="794.580078"/>
      <use xlink:href="#DejaVuSans-2d" x="826.367188"/>
      <use xlink:href="#DejaVuSans-20" x="862.451172"/>
      <use xlink:href="#DejaVuSans-41" x="894.238281"/>
      <use xlink:href="#DejaVuSans-64" x="960.896484"/>
      <use xlink:href="#DejaVuSans-61" x="1024.373047"/>
      <use xlink:href="#DejaVuSans-70" x="1085.652344"/>
      <use xlink:href="#DejaVuSans-74" x="1149.128906"/>
      <use xlink:href="#DejaVuSans-65" x="1188.337891"/>
      <use xlink:href="#DejaVuSans-72" x="1249.861328"/>
      <use xlink:href="#DejaVuSans-20" x="1290.974609"/>
      <use xlink:href="#DejaVuSans-31" x="1322.761719"/>
     </g>
    </g>
    <g id="line2d_17">
     <path d="M 852.529375 315.455394 
L 860.529375 315.455394 
L 868.529375 315.455394 
" style="fill: none; stroke: #f7a35c; stroke-linecap: square"/>
    </g>
    <g id="text_21">
     <!-- wt_2_light_T1_2 - Adapter 1 -->
     <g transform="translate(874.929375 318.255394) scale(0.08 -0.08)">
      <use xlink:href="#DejaVuSans-77"/>
      <use xlink:href="#DejaVuSans-74" x="81.787109"/>
      <use xlink:href="#DejaVuSans-5f" x="120.996094"/>
      <use xlink:href="#DejaVuSans-32" x="170.996094"/>
      <use xlink:href="#DejaVuSans-5f" x="234.619141"/>
      <use xlink:href="#DejaVuSans-6c" x="284.619141"/>
      <use xlink:href="#DejaVuSans-69" x="312.402344"/>
      <use xlink:href="#DejaVuSans-67" x="340.185547"/>
      <use xlink:href="#DejaVuSans-68" x="403.662109"/>
      <use xlink:href="#DejaVuSans-74" x="467.041016"/>
      <use xlink:href="#DejaVuSans-5f" x="506.25"/>
      <use xlink:href="#DejaVuSans-54" x="556.25"/>
      <use xlink:href="#DejaVuSans-31" x="617.333984"/>
      <use xlink:href="#DejaVuSans-5f" x="680.957031"/>
      <use xlink:href="#DejaVuSans-32" x="730.957031"/>
      <use xlink:href="#DejaVuSans-20" x="794.580078"/>
      <use xlink:href="#DejaVuSans-2d" x="826.367188"/>
      <use xlink:href="#DejaVuSans-20" x="862.451172"/>
      <use xlink:href="#DejaVuSans-41" x="894.238281"/>
      <use xlink:href="#DejaVuSans-64" x="960.896484"/>
      <use xlink:href="#DejaVuSans-61" x="1024.373047"/>
      <use xlink:href="#DejaVuSans-70" x="1085.652344"/>
      <use xlink:href="#DejaVuSans-74" x="1149.128906"/>
      <use xlink:href="#DejaVuSans-65" x="1188.337891"/>
      <use xlink:href="#DejaVuSans-72" x="1249.861328"/>
      <use xlink:href="#DejaVuSans-20" x="1290.974609"/>
      <use xlink:href="#DejaVuSans-31" x="1322.761719"/>
     </g>
    </g>
   </g>
  </g>
 </g>
 <defs>
  <clipPath id="pc8000625a2">
   <rect x="48.238125" y="31.48286" width="944.8" height="242.5072"/>
  </clipPath>
 </defs>
</svg>
