<?xml version="1.0" encoding="utf-8" standalone="no"?>
<!DOCTYPE svg PUBLIC "-//W3C//DTD SVG 1.1//EN"
  "http://www.w3.org/Graphics/SVG/1.1/DTD/svg11.dtd">
<svg xmlns:xlink="http://www.w3.org/1999/xlink" width="1000.178125pt" height="330.541644pt" viewBox="0 0 1000.178125 330.541644" xmlns="http://www.w3.org/2000/svg" version="1.1">
 <metadata>
  <rdf:RDF xmlns:dc="http://purl.org/dc/elements/1.1/" xmlns:cc="http://creativecommons.org/ns#" xmlns:rdf="http://www.w3.org/1999/02/22-rdf-syntax-ns#">
   <cc:Work>
    <dc:type rdf:resource="http://purl.org/dc/dcmitype/StillImage"/>
    <dc:date>2025-01-27T16:07:15.539933</dc:date>
    <dc:format>image/svg+xml</dc:format>
    <dc:creator>
     <cc:Agent>
      <dc:title>Matplotlib v3.6.2, https://matplotlib.org/</dc:title>
     </cc:Agent>
    </dc:creator>
   </cc:Work>
  </rdf:RDF>
 </metadata>
 <defs>
  <style type="text/css">*{stroke-linejoin: round; stroke-linecap: butt}</style>
 </defs>
 <g id="figure_1">
  <g id="axes_1">
   <g id="patch_1">
    <path d="M 48.238125 273.99006 
L 985.343125 273.99006 
L 985.343125 31.48286 
L 48.238125 31.48286 
z
" style="fill: #ffffff"/>
   </g>
   <g id="matplotlib.axis_1">
    <g id="xtick_1">
     <g id="text_1">
      <!-- 0 -->
      <g transform="translate(45.693125 287.06881) scale(0.08 -0.08)">
       <defs>
        <path id="DejaVuSans-30" d="M 2034 4250 
Q 1547 4250 1301 3770 
Q 1056 3291 1056 2328 
Q 1056 1369 1301 889 
Q 1547 409 2034 409 
Q 2525 409 2770 889 
Q 3016 1369 3016 2328 
Q 3016 3291 2770 3770 
Q 2525 4250 2034 4250 
z
M 2034 4750 
Q 2819 4750 3233 4129 
Q 3647 3509 3647 2328 
Q 3647 1150 3233 529 
Q 2819 -91 2034 -91 
Q 1250 -91 836 529 
Q 422 1150 422 2328 
Q 422 3509 836 4129 
Q 1250 4750 2034 4750 
z
" transform="scale(0.015625)"/>
       </defs>
       <use xlink:href="#DejaVuSans-30"/>
      </g>
     </g>
    </g>
    <g id="xtick_2">
     <g id="text_2">
      <!-- 20 -->
      <g transform="translate(230.569125 287.06881) scale(0.08 -0.08)">
       <defs>
        <path id="DejaVuSans-32" d="M 1228 531 
L 3431 531 
L 3431 0 
L 469 0 
L 469 531 
Q 828 903 1448 1529 
Q 2069 2156 2228 2338 
Q 2531 2678 2651 2914 
Q 2772 3150 2772 3378 
Q 2772 3750 2511 3984 
Q 2250 4219 1831 4219 
Q 1534 4219 1204 4116 
Q 875 4013 500 3803 
L 500 4441 
Q 881 4594 1212 4672 
Q 1544 4750 1819 4750 
Q 2544 4750 2975 4387 
Q 3406 4025 3406 3419 
Q 3406 3131 3298 2873 
Q 3191 2616 2906 2266 
Q 2828 2175 2409 1742 
Q 1991 1309 1228 531 
z
" transform="scale(0.015625)"/>
       </defs>
       <use xlink:href="#DejaVuSans-32"/>
       <use xlink:href="#DejaVuSans-30" x="63.623047"/>
      </g>
     </g>
    </g>
    <g id="xtick_3">
     <g id="text_3">
      <!-- 40 -->
      <g transform="translate(417.990125 287.06881) scale(0.08 -0.08)">
       <defs>
        <path id="DejaVuSans-34" d="M 2419 4116 
L 825 1625 
L 2419 1625 
L 2419 4116 
z
M 2253 4666 
L 3047 4666 
L 3047 1625 
L 3713 1625 
L 3713 1100 
L 3047 1100 
L 3047 0 
L 2419 0 
L 2419 1100 
L 313 1100 
L 313 1709 
L 2253 4666 
z
" transform="scale(0.015625)"/>
       </defs>
       <use xlink:href="#DejaVuSans-34"/>
       <use xlink:href="#DejaVuSans-30" x="63.623047"/>
      </g>
     </g>
    </g>
    <g id="xtick_4">
     <g id="text_4">
      <!-- 60 -->
      <g transform="translate(605.411125 287.06881) scale(0.08 -0.08)">
       <defs>
        <path id="DejaVuSans-36" d="M 2113 2584 
Q 1688 2584 1439 2293 
Q 1191 2003 1191 1497 
Q 1191 994 1439 701 
Q 1688 409 2113 409 
Q 2538 409 2786 701 
Q 3034 994 3034 1497 
Q 3034 2003 2786 2293 
Q 2538 2584 2113 2584 
z
M 3366 4563 
L 3366 3988 
Q 3128 4100 2886 4159 
Q 2644 4219 2406 4219 
Q 1781 4219 1451 3797 
Q 1122 3375 1075 2522 
Q 1259 2794 1537 2939 
Q 1816 3084 2150 3084 
Q 2853 3084 3261 2657 
Q 3669 2231 3669 1497 
Q 3669 778 3244 343 
Q 2819 -91 2113 -91 
Q 1303 -91 875 529 
Q 447 1150 447 2328 
Q 447 3434 972 4092 
Q 1497 4750 2381 4750 
Q 2619 4750 2861 4703 
Q 3103 4656 3366 4563 
z
" transform="scale(0.015625)"/>
       </defs>
       <use xlink:href="#DejaVuSans-36"/>
       <use xlink:href="#DejaVuSans-30" x="63.623047"/>
      </g>
     </g>
    </g>
    <g id="xtick_5">
     <g id="text_5">
      <!-- 80 -->
      <g transform="translate(792.832125 287.06881) scale(0.08 -0.08)">
       <defs>
        <path id="DejaVuSans-38" d="M 2034 2216 
Q 1584 2216 1326 1975 
Q 1069 1734 1069 1313 
Q 1069 891 1326 650 
Q 1584 409 2034 409 
Q 2484 409 2743 651 
Q 3003 894 3003 1313 
Q 3003 1734 2745 1975 
Q 2488 2216 2034 2216 
z
M 1403 2484 
Q 997 2584 770 2862 
Q 544 3141 544 3541 
Q 544 4100 942 4425 
Q 1341 4750 2034 4750 
Q 2731 4750 3128 4425 
Q 3525 4100 3525 3541 
Q 3525 3141 3298 2862 
Q 3072 2584 2669 2484 
Q 3125 2378 3379 2068 
Q 3634 1759 3634 1313 
Q 3634 634 3220 271 
Q 2806 -91 2034 -91 
Q 1263 -91 848 271 
Q 434 634 434 1313 
Q 434 1759 690 2068 
Q 947 2378 1403 2484 
z
M 1172 3481 
Q 1172 3119 1398 2916 
Q 1625 2713 2034 2713 
Q 2441 2713 2670 2916 
Q 2900 3119 2900 3481 
Q 2900 3844 2670 4047 
Q 2441 4250 2034 4250 
Q 1625 4250 1398 4047 
Q 1172 3844 1172 3481 
z
" transform="scale(0.015625)"/>
       </defs>
       <use xlink:href="#DejaVuSans-38"/>
       <use xlink:href="#DejaVuSans-30" x="63.623047"/>
      </g>
     </g>
    </g>
    <g id="xtick_6">
     <g id="text_6">
      <!-- 100 -->
      <g transform="translate(977.708125 287.06881) scale(0.08 -0.08)">
       <defs>
        <path id="DejaVuSans-31" d="M 794 531 
L 1825 531 
L 1825 4091 
L 703 3866 
L 703 4441 
L 1819 4666 
L 2450 4666 
L 2450 531 
L 3481 531 
L 3481 0 
L 794 0 
L 794 531 
z
" transform="scale(0.015625)"/>
       </defs>
       <use xlink:href="#DejaVuSans-31"/>
       <use xlink:href="#DejaVuSans-30" x="63.623047"/>
       <use xlink:href="#DejaVuSans-30" x="127.246094"/>
      </g>
     </g>
    </g>
    <g id="text_7">
     <!-- % GC -->
     <g transform="translate(503.085156 300.330997) scale(0.1 -0.1)">
      <defs>
       <path id="DejaVuSans-25" d="M 4653 2053 
Q 4381 2053 4226 1822 
Q 4072 1591 4072 1178 
Q 4072 772 4226 539 
Q 4381 306 4653 306 
Q 4919 306 5073 539 
Q 5228 772 5228 1178 
Q 5228 1588 5073 1820 
Q 4919 2053 4653 2053 
z
M 4653 2450 
Q 5147 2450 5437 2106 
Q 5728 1763 5728 1178 
Q 5728 594 5436 251 
Q 5144 -91 4653 -91 
Q 4153 -91 3862 251 
Q 3572 594 3572 1178 
Q 3572 1766 3864 2108 
Q 4156 2450 4653 2450 
z
M 1428 4353 
Q 1159 4353 1004 4120 
Q 850 3888 850 3481 
Q 850 3069 1003 2837 
Q 1156 2606 1428 2606 
Q 1700 2606 1854 2837 
Q 2009 3069 2009 3481 
Q 2009 3884 1853 4118 
Q 1697 4353 1428 4353 
z
M 4250 4750 
L 4750 4750 
L 1831 -91 
L 1331 -91 
L 4250 4750 
z
M 1428 4750 
Q 1922 4750 2215 4408 
Q 2509 4066 2509 3481 
Q 2509 2891 2217 2550 
Q 1925 2209 1428 2209 
Q 931 2209 642 2551 
Q 353 2894 353 3481 
Q 353 4063 643 4406 
Q 934 4750 1428 4750 
z
" transform="scale(0.015625)"/>
       <path id="DejaVuSans-20" transform="scale(0.015625)"/>
       <path id="DejaVuSans-47" d="M 3809 666 
L 3809 1919 
L 2778 1919 
L 2778 2438 
L 4434 2438 
L 4434 434 
Q 4069 175 3628 42 
Q 3188 -91 2688 -91 
Q 1594 -91 976 548 
Q 359 1188 359 2328 
Q 359 3472 976 4111 
Q 1594 4750 2688 4750 
Q 3144 4750 3555 4637 
Q 3966 4525 4313 4306 
L 4313 3634 
Q 3963 3931 3569 4081 
Q 3175 4231 2741 4231 
Q 1884 4231 1454 3753 
Q 1025 3275 1025 2328 
Q 1025 1384 1454 906 
Q 1884 428 2741 428 
Q 3075 428 3337 486 
Q 3600 544 3809 666 
z
" transform="scale(0.015625)"/>
       <path id="DejaVuSans-43" d="M 4122 4306 
L 4122 3641 
Q 3803 3938 3442 4084 
Q 3081 4231 2675 4231 
Q 1875 4231 1450 3742 
Q 1025 3253 1025 2328 
Q 1025 1406 1450 917 
Q 1875 428 2675 428 
Q 3081 428 3442 575 
Q 3803 722 4122 1019 
L 4122 359 
Q 3791 134 3420 21 
Q 3050 -91 2638 -91 
Q 1578 -91 968 557 
Q 359 1206 359 2328 
Q 359 3453 968 4101 
Q 1578 4750 2638 4750 
Q 3056 4750 3426 4639 
Q 3797 4528 4122 4306 
z
" transform="scale(0.015625)"/>
      </defs>
      <use xlink:href="#DejaVuSans-25"/>
      <use xlink:href="#DejaVuSans-20" x="95.019531"/>
      <use xlink:href="#DejaVuSans-47" x="126.806641"/>
      <use xlink:href="#DejaVuSans-43" x="204.296875"/>
     </g>
    </g>
   </g>
   <g id="matplotlib.axis_2">
    <g id="ytick_1">
     <g id="line2d_1">
      <path d="M 48.238125 273.99006 
L 985.343125 273.99006 
" clip-path="url(#pd9ad70122a)" style="fill: none; stroke: #dedede; stroke-linecap: square"/>
     </g>
     <g id="text_8">
      <!-- 0 -->
      <g transform="translate(36.148125 277.029435) scale(0.08 -0.08)">
       <use xlink:href="#DejaVuSans-30"/>
      </g>
     </g>
    </g>
    <g id="ytick_2">
     <g id="line2d_2">
      <path d="M 48.238125 237.286168 
L 985.343125 237.286168 
" clip-path="url(#pd9ad70122a)" style="fill: none; stroke: #dedede; stroke-linecap: square"/>
     </g>
     <g id="text_9">
      <!-- 1000 -->
      <g transform="translate(20.878125 240.325543) scale(0.08 -0.08)">
       <use xlink:href="#DejaVuSans-31"/>
       <use xlink:href="#DejaVuSans-30" x="63.623047"/>
       <use xlink:href="#DejaVuSans-30" x="127.246094"/>
       <use xlink:href="#DejaVuSans-30" x="190.869141"/>
      </g>
     </g>
    </g>
    <g id="ytick_3">
     <g id="line2d_3">
      <path d="M 48.238125 200.582277 
L 985.343125 200.582277 
" clip-path="url(#pd9ad70122a)" style="fill: none; stroke: #dedede; stroke-linecap: square"/>
     </g>
     <g id="text_10">
      <!-- 2000 -->
      <g transform="translate(20.878125 203.621652) scale(0.08 -0.08)">
       <use xlink:href="#DejaVuSans-32"/>
       <use xlink:href="#DejaVuSans-30" x="63.623047"/>
       <use xlink:href="#DejaVuSans-30" x="127.246094"/>
       <use xlink:href="#DejaVuSans-30" x="190.869141"/>
      </g>
     </g>
    </g>
    <g id="ytick_4">
     <g id="line2d_4">
      <path d="M 48.238125 163.878385 
L 985.343125 163.878385 
" clip-path="url(#pd9ad70122a)" style="fill: none; stroke: #dedede; stroke-linecap: square"/>
     </g>
     <g id="text_11">
      <!-- 3000 -->
      <g transform="translate(20.878125 166.91776) scale(0.08 -0.08)">
       <defs>
        <path id="DejaVuSans-33" d="M 2597 2516 
Q 3050 2419 3304 2112 
Q 3559 1806 3559 1356 
Q 3559 666 3084 287 
Q 2609 -91 1734 -91 
Q 1441 -91 1130 -33 
Q 819 25 488 141 
L 488 750 
Q 750 597 1062 519 
Q 1375 441 1716 441 
Q 2309 441 2620 675 
Q 2931 909 2931 1356 
Q 2931 1769 2642 2001 
Q 2353 2234 1838 2234 
L 1294 2234 
L 1294 2753 
L 1863 2753 
Q 2328 2753 2575 2939 
Q 2822 3125 2822 3475 
Q 2822 3834 2567 4026 
Q 2313 4219 1838 4219 
Q 1578 4219 1281 4162 
Q 984 4106 628 3988 
L 628 4550 
Q 988 4650 1302 4700 
Q 1616 4750 1894 4750 
Q 2613 4750 3031 4423 
Q 3450 4097 3450 3541 
Q 3450 3153 3228 2886 
Q 3006 2619 2597 2516 
z
" transform="scale(0.015625)"/>
       </defs>
       <use xlink:href="#DejaVuSans-33"/>
       <use xlink:href="#DejaVuSans-30" x="63.623047"/>
       <use xlink:href="#DejaVuSans-30" x="127.246094"/>
       <use xlink:href="#DejaVuSans-30" x="190.869141"/>
      </g>
     </g>
    </g>
    <g id="ytick_5">
     <g id="line2d_5">
      <path d="M 48.238125 127.174493 
L 985.343125 127.174493 
" clip-path="url(#pd9ad70122a)" style="fill: none; stroke: #dedede; stroke-linecap: square"/>
     </g>
     <g id="text_12">
      <!-- 4000 -->
      <g transform="translate(20.878125 130.213868) scale(0.08 -0.08)">
       <use xlink:href="#DejaVuSans-34"/>
       <use xlink:href="#DejaVuSans-30" x="63.623047"/>
       <use xlink:href="#DejaVuSans-30" x="127.246094"/>
       <use xlink:href="#DejaVuSans-30" x="190.869141"/>
      </g>
     </g>
    </g>
    <g id="ytick_6">
     <g id="line2d_6">
      <path d="M 48.238125 90.470602 
L 985.343125 90.470602 
" clip-path="url(#pd9ad70122a)" style="fill: none; stroke: #dedede; stroke-linecap: square"/>
     </g>
     <g id="text_13">
      <!-- 5000 -->
      <g transform="translate(20.878125 93.509977) scale(0.08 -0.08)">
       <defs>
        <path id="DejaVuSans-35" d="M 691 4666 
L 3169 4666 
L 3169 4134 
L 1269 4134 
L 1269 2991 
Q 1406 3038 1543 3061 
Q 1681 3084 1819 3084 
Q 2600 3084 3056 2656 
Q 3513 2228 3513 1497 
Q 3513 744 3044 326 
Q 2575 -91 1722 -91 
Q 1428 -91 1123 -41 
Q 819 9 494 109 
L 494 744 
Q 775 591 1075 516 
Q 1375 441 1709 441 
Q 2250 441 2565 725 
Q 2881 1009 2881 1497 
Q 2881 1984 2565 2268 
Q 2250 2553 1709 2553 
Q 1456 2553 1204 2497 
Q 953 2441 691 2322 
L 691 4666 
z
" transform="scale(0.015625)"/>
       </defs>
       <use xlink:href="#DejaVuSans-35"/>
       <use xlink:href="#DejaVuSans-30" x="63.623047"/>
       <use xlink:href="#DejaVuSans-30" x="127.246094"/>
       <use xlink:href="#DejaVuSans-30" x="190.869141"/>
      </g>
     </g>
    </g>
    <g id="ytick_7">
     <g id="line2d_7">
      <path d="M 48.238125 53.76671 
L 985.343125 53.76671 
" clip-path="url(#pd9ad70122a)" style="fill: none; stroke: #dedede; stroke-linecap: square"/>
     </g>
     <g id="text_14">
      <!-- 6000 -->
      <g transform="translate(20.878125 56.806085) scale(0.08 -0.08)">
       <use xlink:href="#DejaVuSans-36"/>
       <use xlink:href="#DejaVuSans-30" x="63.623047"/>
       <use xlink:href="#DejaVuSans-30" x="127.246094"/>
       <use xlink:href="#DejaVuSans-30" x="190.869141"/>
      </g>
     </g>
    </g>
    <g id="text_15">
     <!-- Count -->
     <g transform="translate(14.798438 167.584897) rotate(-90) scale(0.1 -0.1)">
      <defs>
       <path id="DejaVuSans-6f" d="M 1959 3097 
Q 1497 3097 1228 2736 
Q 959 2375 959 1747 
Q 959 1119 1226 758 
Q 1494 397 1959 397 
Q 2419 397 2687 759 
Q 2956 1122 2956 1747 
Q 2956 2369 2687 2733 
Q 2419 3097 1959 3097 
z
M 1959 3584 
Q 2709 3584 3137 3096 
Q 3566 2609 3566 1747 
Q 3566 888 3137 398 
Q 2709 -91 1959 -91 
Q 1206 -91 779 398 
Q 353 888 353 1747 
Q 353 2609 779 3096 
Q 1206 3584 1959 3584 
z
" transform="scale(0.015625)"/>
       <path id="DejaVuSans-75" d="M 544 1381 
L 544 3500 
L 1119 3500 
L 1119 1403 
Q 1119 906 1312 657 
Q 1506 409 1894 409 
Q 2359 409 2629 706 
Q 2900 1003 2900 1516 
L 2900 3500 
L 3475 3500 
L 3475 0 
L 2900 0 
L 2900 538 
Q 2691 219 2414 64 
Q 2138 -91 1772 -91 
Q 1169 -91 856 284 
Q 544 659 544 1381 
z
M 1991 3584 
L 1991 3584 
z
" transform="scale(0.015625)"/>
       <path id="DejaVuSans-6e" d="M 3513 2113 
L 3513 0 
L 2938 0 
L 2938 2094 
Q 2938 2591 2744 2837 
Q 2550 3084 2163 3084 
Q 1697 3084 1428 2787 
Q 1159 2491 1159 1978 
L 1159 0 
L 581 0 
L 581 3500 
L 1159 3500 
L 1159 2956 
Q 1366 3272 1645 3428 
Q 1925 3584 2291 3584 
Q 2894 3584 3203 3211 
Q 3513 2838 3513 2113 
z
" transform="scale(0.015625)"/>
       <path id="DejaVuSans-74" d="M 1172 4494 
L 1172 3500 
L 2356 3500 
L 2356 3053 
L 1172 3053 
L 1172 1153 
Q 1172 725 1289 603 
Q 1406 481 1766 481 
L 2356 481 
L 2356 0 
L 1766 0 
Q 1100 0 847 248 
Q 594 497 594 1153 
L 594 3053 
L 172 3053 
L 172 3500 
L 594 3500 
L 594 4494 
L 1172 4494 
z
" transform="scale(0.015625)"/>
      </defs>
      <use xlink:href="#DejaVuSans-43"/>
      <use xlink:href="#DejaVuSans-6f" x="69.824219"/>
      <use xlink:href="#DejaVuSans-75" x="131.005859"/>
      <use xlink:href="#DejaVuSans-6e" x="194.384766"/>
      <use xlink:href="#DejaVuSans-74" x="257.763672"/>
     </g>
    </g>
   </g>
   <g id="line2d_8">
    <path d="M 48.238125 273.953356 
L 57.609175 273.971708 
L 66.980225 273.99006 
L 76.351275 273.971708 
L 85.722325 273.971708 
L 95.093375 273.99006 
L 104.464425 273.99006 
L 113.835475 273.99006 
L 123.206525 273.99006 
L 132.577575 273.99006 
L 141.948625 273.99006 
L 151.319675 273.99006 
L 160.690725 273.99006 
L 170.061775 273.99006 
L 179.432825 273.99006 
L 188.803875 273.99006 
L 198.174925 273.99006 
L 207.545975 273.99006 
L 216.917025 273.99006 
L 226.288075 273.99006 
L 235.659125 273.99006 
L 245.030175 273.99006 
L 254.401225 273.99006 
L 263.772275 273.99006 
L 273.143325 273.971708 
L 282.514375 273.971708 
L 291.885425 273.99006 
L 301.256475 273.916652 
L 310.627525 273.916652 
L 319.998575 273.953356 
L 329.369625 273.879948 
L 338.740675 273.861596 
L 348.111725 273.861596 
L 357.482775 273.806541 
L 366.853825 273.714781 
L 376.224875 273.567965 
L 385.595925 273.457854 
L 394.966975 273.439502 
L 404.338025 273.311038 
L 413.709075 272.650368 
L 423.080125 271.714419 
L 432.451175 270.833525 
L 441.822225 270.301319 
L 451.193275 270.044392 
L 460.564325 269.493833 
L 469.935375 268.778107 
L 479.306425 266.63093 
L 488.677475 263.327579 
L 498.048525 259.638838 
L 507.419575 252.775211 
L 516.790625 242.589881 
L 526.161675 231.853992 
L 535.532725 230.128909 
L 544.903775 231.652121 
L 554.274825 225.724443 
L 563.645875 209.501322 
L 573.016925 193.938872 
L 582.387975 178.394774 
L 591.759025 152.61029 
L 601.130075 115.007153 
L 610.501125 86.48823 
L 619.872175 70.375221 
L 629.243225 52.53713 
L 638.614275 62.53894 
L 647.985325 79.312619 
L 657.356375 78.85382 
L 666.727425 78.688653 
L 676.098475 84.542923 
L 685.469525 97.572805 
L 694.840575 114.841986 
L 704.211625 131.909295 
L 713.582675 152.830514 
L 722.953725 176.37606 
L 732.324775 195.076693 
L 741.695825 211.208053 
L 751.066875 225.907962 
L 760.437925 236.515387 
L 769.808975 241.507116 
L 779.180025 232.58807 
L 788.551075 135.029126 
L 797.922125 156.18892 
L 807.293175 268.392717 
L 816.664225 272.833887 
L 826.035275 273.733133 
L 835.406325 273.861596 
L 844.777375 273.953356 
L 854.148425 273.953356 
L 863.519475 273.953356 
L 872.890525 273.935004 
L 882.261575 273.971708 
L 891.632625 273.99006 
L 901.003675 273.99006 
L 910.374725 273.953356 
L 919.745775 273.953356 
L 929.116825 273.971708 
L 938.487875 273.971708 
L 947.858925 273.99006 
L 957.229975 273.935004 
L 966.601025 273.806541 
L 975.972075 273.788189 
L 985.343125 273.8983 
" clip-path="url(#pd9ad70122a)" style="fill: none; stroke: #d9534f; stroke-linecap: square"/>
   </g>
   <g id="line2d_9">
    <path d="M 48.238125 273.99006 
L 57.609175 273.99006 
L 66.980225 273.99006 
L 76.351275 273.971708 
L 85.722325 273.971708 
L 95.093375 273.99006 
L 104.464425 273.99006 
L 113.835475 273.99006 
L 123.206525 273.99006 
L 132.577575 273.99006 
L 141.948625 273.99006 
L 151.319675 273.99006 
L 160.690725 273.99006 
L 170.061775 273.99006 
L 179.432825 273.99006 
L 188.803875 273.99006 
L 198.174925 273.99006 
L 207.545975 273.971708 
L 216.917025 273.953356 
L 226.288075 273.971708 
L 235.659125 273.99006 
L 245.030175 273.99006 
L 254.401225 273.99006 
L 263.772275 273.99006 
L 273.143325 273.971708 
L 282.514375 273.953356 
L 291.885425 273.971708 
L 301.256475 273.99006 
L 310.627525 273.971708 
L 319.998575 273.8983 
L 329.369625 273.8983 
L 338.740675 273.916652 
L 348.111725 273.843244 
L 357.482775 273.788189 
L 366.853825 273.678077 
L 376.224875 273.476206 
L 385.595925 273.164222 
L 394.966975 272.980703 
L 404.338025 272.907295 
L 413.709075 272.503552 
L 423.080125 272.026402 
L 432.451175 270.741766 
L 441.822225 269.970984 
L 451.193275 270.393079 
L 460.564325 269.071739 
L 469.935375 267.089728 
L 479.306425 265.97026 
L 488.677475 262.024591 
L 498.048525 246.682365 
L 507.419575 240.149072 
L 516.790625 236.129996 
L 526.161675 220.622602 
L 535.532725 218.457072 
L 544.903775 223.210226 
L 554.274825 220.51249 
L 563.645875 212.87808 
L 573.016925 195.443732 
L 582.387975 174.779441 
L 591.759025 147.012947 
L 601.130075 100.931211 
L 610.501125 77.550832 
L 619.872175 71.898433 
L 629.243225 60.777154 
L 638.614275 63.236314 
L 647.985325 71.347874 
L 657.356375 73.623516 
L 666.727425 78.872172 
L 676.098475 92.3425 
L 685.469525 106.10646 
L 694.840575 120.677905 
L 704.211625 139.470297 
L 713.582675 160.391515 
L 722.953725 181.331086 
L 732.324775 202.233952 
L 741.695825 220.60425 
L 751.066875 235.212398 
L 760.437925 247.710074 
L 769.808975 257.234733 
L 779.180025 263.676266 
L 788.551075 267.787102 
L 797.922125 270.705062 
L 807.293175 272.191569 
L 816.664225 273.127519 
L 826.035275 273.604669 
L 835.406325 273.678077 
L 844.777375 273.714781 
L 854.148425 273.733133 
L 863.519475 273.751485 
L 872.890525 273.769837 
L 882.261575 273.788189 
L 891.632625 273.751485 
L 901.003675 273.769837 
L 910.374725 273.806541 
L 919.745775 273.806541 
L 929.116825 273.769837 
L 938.487875 273.714781 
L 947.858925 273.347742 
L 957.229975 272.925647 
L 966.601025 272.026402 
L 975.972075 261.437329 
L 985.343125 140.62647 
" clip-path="url(#pd9ad70122a)" style="fill: none; stroke: #d9534f; stroke-linecap: square"/>
   </g>
   <g id="line2d_10">
    <path d="M 48.238125 273.99006 
L 57.609175 273.99006 
L 66.980225 273.99006 
L 76.351275 273.99006 
L 85.722325 273.99006 
L 95.093375 273.99006 
L 104.464425 273.99006 
L 113.835475 273.99006 
L 123.206525 273.99006 
L 132.577575 273.99006 
L 141.948625 273.99006 
L 151.319675 273.99006 
L 160.690725 273.99006 
L 170.061775 273.99006 
L 179.432825 273.99006 
L 188.803875 273.971708 
L 198.174925 273.971708 
L 207.545975 273.99006 
L 216.917025 273.99006 
L 226.288075 273.99006 
L 235.659125 273.99006 
L 245.030175 273.971708 
L 254.401225 273.971708 
L 263.772275 273.99006 
L 273.143325 273.99006 
L 282.514375 273.953356 
L 291.885425 273.916652 
L 301.256475 273.935004 
L 310.627525 273.953356 
L 319.998575 273.971708 
L 329.369625 273.8983 
L 338.740675 273.879948 
L 348.111725 273.861596 
L 357.482775 273.733133 
L 366.853825 273.714781 
L 376.224875 273.696429 
L 385.595925 273.439502 
L 394.966975 272.980703 
L 404.338025 272.57696 
L 413.709075 272.026402 
L 423.080125 271.365732 
L 432.451175 270.466486 
L 441.822225 269.18185 
L 451.193275 268.374365 
L 460.564325 267.878862 
L 469.935375 266.777745 
L 479.306425 264.300233 
L 488.677475 260.262805 
L 498.048525 254.738869 
L 507.419575 246.627309 
L 516.790625 235.634493 
L 526.161675 223.962656 
L 535.532725 220.787769 
L 544.903775 222.182517 
L 554.274825 218.713999 
L 563.645875 201.665042 
L 573.016925 183.184632 
L 582.387975 168.227796 
L 591.759025 143.012223 
L 601.130075 103.702355 
L 610.501125 75.954213 
L 619.872175 60.410115 
L 629.243225 43.030822 
L 638.614275 55.767072 
L 647.985325 73.164717 
L 657.356375 74.100666 
L 666.727425 77.073681 
L 676.098475 83.717086 
L 685.469525 97.462693 
L 694.840575 114.21802 
L 704.211625 133.285691 
L 713.582675 156.042104 
L 722.953725 177.972679 
L 732.324775 196.030994 
L 741.695825 208.877356 
L 751.066875 211.097942 
L 760.437925 172.173465 
L 769.808975 198.214876 
L 779.180025 263.162412 
L 788.551075 268.594588 
L 797.922125 271.329028 
L 807.293175 272.595312 
L 816.664225 273.347742 
L 826.035275 273.678077 
L 835.406325 273.8983 
L 844.777375 273.99006 
L 854.148425 273.99006 
L 863.519475 273.971708 
L 872.890525 273.935004 
L 882.261575 273.953356 
L 891.632625 273.935004 
L 901.003675 273.916652 
L 910.374725 273.971708 
L 919.745775 273.99006 
L 929.116825 273.971708 
L 938.487875 273.971708 
L 947.858925 273.971708 
L 957.229975 273.971708 
L 966.601025 273.8983 
L 975.972075 273.843244 
L 985.343125 273.8983 
" clip-path="url(#pd9ad70122a)" style="fill: none; stroke: #f0ad4e; stroke-linecap: square"/>
   </g>
   <g id="line2d_11">
    <path d="M 48.238125 273.99006 
L 57.609175 273.99006 
L 66.980225 273.99006 
L 76.351275 273.99006 
L 85.722325 273.99006 
L 95.093375 273.99006 
L 104.464425 273.99006 
L 113.835475 273.99006 
L 123.206525 273.99006 
L 132.577575 273.99006 
L 141.948625 273.99006 
L 151.319675 273.99006 
L 160.690725 273.99006 
L 170.061775 273.99006 
L 179.432825 273.971708 
L 188.803875 273.971708 
L 198.174925 273.971708 
L 207.545975 273.971708 
L 216.917025 273.99006 
L 226.288075 273.99006 
L 235.659125 273.99006 
L 245.030175 273.99006 
L 254.401225 273.99006 
L 263.772275 273.99006 
L 273.143325 273.953356 
L 282.514375 273.935004 
L 291.885425 273.971708 
L 301.256475 273.971708 
L 310.627525 273.953356 
L 319.998575 273.953356 
L 329.369625 273.8983 
L 338.740675 273.806541 
L 348.111725 273.733133 
L 357.482775 273.623021 
L 366.853825 273.494557 
L 376.224875 273.32939 
L 385.595925 272.907295 
L 394.966975 272.375089 
L 404.338025 272.228273 
L 413.709075 271.82453 
L 423.080125 271.108805 
L 432.451175 269.989336 
L 441.822225 268.594588 
L 451.193275 268.04403 
L 460.564325 267.420063 
L 469.935375 266.025316 
L 479.306425 264.55716 
L 488.677475 259.08828 
L 498.048525 238.772676 
L 507.419575 230.78958 
L 516.790625 230.092206 
L 526.161675 213.355231 
L 535.532725 209.281099 
L 544.903775 215.025258 
L 554.274825 212.033891 
L 563.645875 204.326074 
L 573.016925 187.515691 
L 582.387975 165.034558 
L 591.759025 137.910382 
L 601.130075 93.333505 
L 610.501125 70.265109 
L 619.872175 69.641143 
L 629.243225 56.776429 
L 638.614275 54.188805 
L 647.985325 67.071871 
L 657.356375 72.981197 
L 666.727425 78.009631 
L 676.098475 89.589708 
L 685.469525 105.335678 
L 694.840575 125.871505 
L 704.211625 147.398338 
L 713.582675 168.576483 
L 722.953725 189.020551 
L 732.324775 207.133921 
L 741.695825 224.164527 
L 751.066875 239.029603 
L 760.437925 250.22429 
L 769.808975 258.33585 
L 779.180025 263.786378 
L 788.551075 268.172493 
L 797.922125 270.723414 
L 807.293175 271.879586 
L 816.664225 272.283329 
L 826.035275 272.833887 
L 835.406325 273.090815 
L 844.777375 273.127519 
L 854.148425 273.402798 
L 863.519475 273.531261 
L 872.890525 273.457854 
L 882.261575 273.549613 
L 891.632625 273.714781 
L 901.003675 273.714781 
L 910.374725 273.659725 
L 919.745775 273.623021 
L 929.116825 273.696429 
L 938.487875 273.641373 
L 947.858925 273.274334 
L 957.229975 272.76048 
L 966.601025 271.182212 
L 975.972075 261.841072 
L 985.343125 194.489431 
" clip-path="url(#pd9ad70122a)" style="fill: none; stroke: #d9534f; stroke-linecap: square"/>
   </g>
   <g id="line2d_12">
    <path d="M 48.238125 273.99006 
L 985.343125 273.99006 
" clip-path="url(#pd9ad70122a)" style="fill: none; stroke: #dedede; stroke-width: 2; stroke-linecap: square"/>
   </g>
   <g id="text_16">
    <!-- FastQC: Per Sequence GC Content -->
    <g transform="translate(380.154375 19.3575) scale(0.16 -0.16)">
     <defs>
      <path id="DejaVuSans-46" d="M 628 4666 
L 3309 4666 
L 3309 4134 
L 1259 4134 
L 1259 2759 
L 3109 2759 
L 3109 2228 
L 1259 2228 
L 1259 0 
L 628 0 
L 628 4666 
z
" transform="scale(0.015625)"/>
      <path id="DejaVuSans-61" d="M 2194 1759 
Q 1497 1759 1228 1600 
Q 959 1441 959 1056 
Q 959 750 1161 570 
Q 1363 391 1709 391 
Q 2188 391 2477 730 
Q 2766 1069 2766 1631 
L 2766 1759 
L 2194 1759 
z
M 3341 1997 
L 3341 0 
L 2766 0 
L 2766 531 
Q 2569 213 2275 61 
Q 1981 -91 1556 -91 
Q 1019 -91 701 211 
Q 384 513 384 1019 
Q 384 1609 779 1909 
Q 1175 2209 1959 2209 
L 2766 2209 
L 2766 2266 
Q 2766 2663 2505 2880 
Q 2244 3097 1772 3097 
Q 1472 3097 1187 3025 
Q 903 2953 641 2809 
L 641 3341 
Q 956 3463 1253 3523 
Q 1550 3584 1831 3584 
Q 2591 3584 2966 3190 
Q 3341 2797 3341 1997 
z
" transform="scale(0.015625)"/>
      <path id="DejaVuSans-73" d="M 2834 3397 
L 2834 2853 
Q 2591 2978 2328 3040 
Q 2066 3103 1784 3103 
Q 1356 3103 1142 2972 
Q 928 2841 928 2578 
Q 928 2378 1081 2264 
Q 1234 2150 1697 2047 
L 1894 2003 
Q 2506 1872 2764 1633 
Q 3022 1394 3022 966 
Q 3022 478 2636 193 
Q 2250 -91 1575 -91 
Q 1294 -91 989 -36 
Q 684 19 347 128 
L 347 722 
Q 666 556 975 473 
Q 1284 391 1588 391 
Q 1994 391 2212 530 
Q 2431 669 2431 922 
Q 2431 1156 2273 1281 
Q 2116 1406 1581 1522 
L 1381 1569 
Q 847 1681 609 1914 
Q 372 2147 372 2553 
Q 372 3047 722 3315 
Q 1072 3584 1716 3584 
Q 2034 3584 2315 3537 
Q 2597 3491 2834 3397 
z
" transform="scale(0.015625)"/>
      <path id="DejaVuSans-51" d="M 2522 4238 
Q 1834 4238 1429 3725 
Q 1025 3213 1025 2328 
Q 1025 1447 1429 934 
Q 1834 422 2522 422 
Q 3209 422 3611 934 
Q 4013 1447 4013 2328 
Q 4013 3213 3611 3725 
Q 3209 4238 2522 4238 
z
M 3406 84 
L 4238 -825 
L 3475 -825 
L 2784 -78 
Q 2681 -84 2626 -87 
Q 2572 -91 2522 -91 
Q 1538 -91 948 567 
Q 359 1225 359 2328 
Q 359 3434 948 4092 
Q 1538 4750 2522 4750 
Q 3503 4750 4090 4092 
Q 4678 3434 4678 2328 
Q 4678 1516 4351 937 
Q 4025 359 3406 84 
z
" transform="scale(0.015625)"/>
      <path id="DejaVuSans-3a" d="M 750 794 
L 1409 794 
L 1409 0 
L 750 0 
L 750 794 
z
M 750 3309 
L 1409 3309 
L 1409 2516 
L 750 2516 
L 750 3309 
z
" transform="scale(0.015625)"/>
      <path id="DejaVuSans-50" d="M 1259 4147 
L 1259 2394 
L 2053 2394 
Q 2494 2394 2734 2622 
Q 2975 2850 2975 3272 
Q 2975 3691 2734 3919 
Q 2494 4147 2053 4147 
L 1259 4147 
z
M 628 4666 
L 2053 4666 
Q 2838 4666 3239 4311 
Q 3641 3956 3641 3272 
Q 3641 2581 3239 2228 
Q 2838 1875 2053 1875 
L 1259 1875 
L 1259 0 
L 628 0 
L 628 4666 
z
" transform="scale(0.015625)"/>
      <path id="DejaVuSans-65" d="M 3597 1894 
L 3597 1613 
L 953 1613 
Q 991 1019 1311 708 
Q 1631 397 2203 397 
Q 2534 397 2845 478 
Q 3156 559 3463 722 
L 3463 178 
Q 3153 47 2828 -22 
Q 2503 -91 2169 -91 
Q 1331 -91 842 396 
Q 353 884 353 1716 
Q 353 2575 817 3079 
Q 1281 3584 2069 3584 
Q 2775 3584 3186 3129 
Q 3597 2675 3597 1894 
z
M 3022 2063 
Q 3016 2534 2758 2815 
Q 2500 3097 2075 3097 
Q 1594 3097 1305 2825 
Q 1016 2553 972 2059 
L 3022 2063 
z
" transform="scale(0.015625)"/>
      <path id="DejaVuSans-72" d="M 2631 2963 
Q 2534 3019 2420 3045 
Q 2306 3072 2169 3072 
Q 1681 3072 1420 2755 
Q 1159 2438 1159 1844 
L 1159 0 
L 581 0 
L 581 3500 
L 1159 3500 
L 1159 2956 
Q 1341 3275 1631 3429 
Q 1922 3584 2338 3584 
Q 2397 3584 2469 3576 
Q 2541 3569 2628 3553 
L 2631 2963 
z
" transform="scale(0.015625)"/>
      <path id="DejaVuSans-53" d="M 3425 4513 
L 3425 3897 
Q 3066 4069 2747 4153 
Q 2428 4238 2131 4238 
Q 1616 4238 1336 4038 
Q 1056 3838 1056 3469 
Q 1056 3159 1242 3001 
Q 1428 2844 1947 2747 
L 2328 2669 
Q 3034 2534 3370 2195 
Q 3706 1856 3706 1288 
Q 3706 609 3251 259 
Q 2797 -91 1919 -91 
Q 1588 -91 1214 -16 
Q 841 59 441 206 
L 441 856 
Q 825 641 1194 531 
Q 1563 422 1919 422 
Q 2459 422 2753 634 
Q 3047 847 3047 1241 
Q 3047 1584 2836 1778 
Q 2625 1972 2144 2069 
L 1759 2144 
Q 1053 2284 737 2584 
Q 422 2884 422 3419 
Q 422 4038 858 4394 
Q 1294 4750 2059 4750 
Q 2388 4750 2728 4690 
Q 3069 4631 3425 4513 
z
" transform="scale(0.015625)"/>
      <path id="DejaVuSans-71" d="M 947 1747 
Q 947 1113 1208 752 
Q 1469 391 1925 391 
Q 2381 391 2643 752 
Q 2906 1113 2906 1747 
Q 2906 2381 2643 2742 
Q 2381 3103 1925 3103 
Q 1469 3103 1208 2742 
Q 947 2381 947 1747 
z
M 2906 525 
Q 2725 213 2448 61 
Q 2172 -91 1784 -91 
Q 1150 -91 751 415 
Q 353 922 353 1747 
Q 353 2572 751 3078 
Q 1150 3584 1784 3584 
Q 2172 3584 2448 3432 
Q 2725 3281 2906 2969 
L 2906 3500 
L 3481 3500 
L 3481 -1331 
L 2906 -1331 
L 2906 525 
z
" transform="scale(0.015625)"/>
      <path id="DejaVuSans-63" d="M 3122 3366 
L 3122 2828 
Q 2878 2963 2633 3030 
Q 2388 3097 2138 3097 
Q 1578 3097 1268 2742 
Q 959 2388 959 1747 
Q 959 1106 1268 751 
Q 1578 397 2138 397 
Q 2388 397 2633 464 
Q 2878 531 3122 666 
L 3122 134 
Q 2881 22 2623 -34 
Q 2366 -91 2075 -91 
Q 1284 -91 818 406 
Q 353 903 353 1747 
Q 353 2603 823 3093 
Q 1294 3584 2113 3584 
Q 2378 3584 2631 3529 
Q 2884 3475 3122 3366 
z
" transform="scale(0.015625)"/>
     </defs>
     <use xlink:href="#DejaVuSans-46"/>
     <use xlink:href="#DejaVuSans-61" x="48.394531"/>
     <use xlink:href="#DejaVuSans-73" x="109.673828"/>
     <use xlink:href="#DejaVuSans-74" x="161.773438"/>
     <use xlink:href="#DejaVuSans-51" x="200.982422"/>
     <use xlink:href="#DejaVuSans-43" x="279.693359"/>
     <use xlink:href="#DejaVuSans-3a" x="349.517578"/>
     <use xlink:href="#DejaVuSans-20" x="383.208984"/>
     <use xlink:href="#DejaVuSans-50" x="414.996094"/>
     <use xlink:href="#DejaVuSans-65" x="471.673828"/>
     <use xlink:href="#DejaVuSans-72" x="533.197266"/>
     <use xlink:href="#DejaVuSans-20" x="574.310547"/>
     <use xlink:href="#DejaVuSans-53" x="606.097656"/>
     <use xlink:href="#DejaVuSans-65" x="669.574219"/>
     <use xlink:href="#DejaVuSans-71" x="731.097656"/>
     <use xlink:href="#DejaVuSans-75" x="794.574219"/>
     <use xlink:href="#DejaVuSans-65" x="857.953125"/>
     <use xlink:href="#DejaVuSans-6e" x="919.476562"/>
     <use xlink:href="#DejaVuSans-63" x="982.855469"/>
     <use xlink:href="#DejaVuSans-65" x="1037.835938"/>
     <use xlink:href="#DejaVuSans-20" x="1099.359375"/>
     <use xlink:href="#DejaVuSans-47" x="1131.146484"/>
     <use xlink:href="#DejaVuSans-43" x="1208.636719"/>
     <use xlink:href="#DejaVuSans-20" x="1278.460938"/>
     <use xlink:href="#DejaVuSans-43" x="1310.248047"/>
     <use xlink:href="#DejaVuSans-6f" x="1380.072266"/>
     <use xlink:href="#DejaVuSans-6e" x="1441.253906"/>
     <use xlink:href="#DejaVuSans-74" x="1504.632812"/>
     <use xlink:href="#DejaVuSans-65" x="1543.841797"/>
     <use xlink:href="#DejaVuSans-6e" x="1605.365234"/>
     <use xlink:href="#DejaVuSans-74" x="1668.744141"/>
    </g>
   </g>
   <g id="legend_1">
    <g id="line2d_13">
     <path d="M 55.438125 315.455394 
L 63.438125 315.455394 
L 71.438125 315.455394 
" style="fill: none; stroke: #d9534f; stroke-linecap: square"/>
    </g>
    <g id="text_17">
     <!-- wt_1_light_T1_1 -->
     <g transform="translate(77.838125 318.255394) scale(0.08 -0.08)">
      <defs>
       <path id="DejaVuSans-77" d="M 269 3500 
L 844 3500 
L 1563 769 
L 2278 3500 
L 2956 3500 
L 3675 769 
L 4391 3500 
L 4966 3500 
L 4050 0 
L 3372 0 
L 2619 2869 
L 1863 0 
L 1184 0 
L 269 3500 
z
" transform="scale(0.015625)"/>
       <path id="DejaVuSans-5f" d="M 3263 -1063 
L 3263 -1509 
L -63 -1509 
L -63 -1063 
L 3263 -1063 
z
" transform="scale(0.015625)"/>
       <path id="DejaVuSans-6c" d="M 603 4863 
L 1178 4863 
L 1178 0 
L 603 0 
L 603 4863 
z
" transform="scale(0.015625)"/>
       <path id="DejaVuSans-69" d="M 603 3500 
L 1178 3500 
L 1178 0 
L 603 0 
L 603 3500 
z
M 603 4863 
L 1178 4863 
L 1178 4134 
L 603 4134 
L 603 4863 
z
" transform="scale(0.015625)"/>
       <path id="DejaVuSans-67" d="M 2906 1791 
Q 2906 2416 2648 2759 
Q 2391 3103 1925 3103 
Q 1463 3103 1205 2759 
Q 947 2416 947 1791 
Q 947 1169 1205 825 
Q 1463 481 1925 481 
Q 2391 481 2648 825 
Q 2906 1169 2906 1791 
z
M 3481 434 
Q 3481 -459 3084 -895 
Q 2688 -1331 1869 -1331 
Q 1566 -1331 1297 -1286 
Q 1028 -1241 775 -1147 
L 775 -588 
Q 1028 -725 1275 -790 
Q 1522 -856 1778 -856 
Q 2344 -856 2625 -561 
Q 2906 -266 2906 331 
L 2906 616 
Q 2728 306 2450 153 
Q 2172 0 1784 0 
Q 1141 0 747 490 
Q 353 981 353 1791 
Q 353 2603 747 3093 
Q 1141 3584 1784 3584 
Q 2172 3584 2450 3431 
Q 2728 3278 2906 2969 
L 2906 3500 
L 3481 3500 
L 3481 434 
z
" transform="scale(0.015625)"/>
       <path id="DejaVuSans-68" d="M 3513 2113 
L 3513 0 
L 2938 0 
L 2938 2094 
Q 2938 2591 2744 2837 
Q 2550 3084 2163 3084 
Q 1697 3084 1428 2787 
Q 1159 2491 1159 1978 
L 1159 0 
L 581 0 
L 581 4863 
L 1159 4863 
L 1159 2956 
Q 1366 3272 1645 3428 
Q 1925 3584 2291 3584 
Q 2894 3584 3203 3211 
Q 3513 2838 3513 2113 
z
" transform="scale(0.015625)"/>
       <path id="DejaVuSans-54" d="M -19 4666 
L 3928 4666 
L 3928 4134 
L 2272 4134 
L 2272 0 
L 1638 0 
L 1638 4134 
L -19 4134 
L -19 4666 
z
" transform="scale(0.015625)"/>
      </defs>
      <use xlink:href="#DejaVuSans-77"/>
      <use xlink:href="#DejaVuSans-74" x="81.787109"/>
      <use xlink:href="#DejaVuSans-5f" x="120.996094"/>
      <use xlink:href="#DejaVuSans-31" x="170.996094"/>
      <use xlink:href="#DejaVuSans-5f" x="234.619141"/>
      <use xlink:href="#DejaVuSans-6c" x="284.619141"/>
      <use xlink:href="#DejaVuSans-69" x="312.402344"/>
      <use xlink:href="#DejaVuSans-67" x="340.185547"/>
      <use xlink:href="#DejaVuSans-68" x="403.662109"/>
      <use xlink:href="#DejaVuSans-74" x="467.041016"/>
      <use xlink:href="#DejaVuSans-5f" x="506.25"/>
      <use xlink:href="#DejaVuSans-54" x="556.25"/>
      <use xlink:href="#DejaVuSans-31" x="617.333984"/>
      <use xlink:href="#DejaVuSans-5f" x="680.957031"/>
      <use xlink:href="#DejaVuSans-31" x="730.957031"/>
     </g>
    </g>
    <g id="line2d_14">
     <path d="M 334.351458 315.455394 
L 342.351458 315.455394 
L 350.351458 315.455394 
" style="fill: none; stroke: #d9534f; stroke-linecap: square"/>
    </g>
    <g id="text_18">
     <!-- wt_1_light_T1_2 -->
     <g transform="translate(356.751458 318.255394) scale(0.08 -0.08)">
      <use xlink:href="#DejaVuSans-77"/>
      <use xlink:href="#DejaVuSans-74" x="81.787109"/>
      <use xlink:href="#DejaVuSans-5f" x="120.996094"/>
      <use xlink:href="#DejaVuSans-31" x="170.996094"/>
      <use xlink:href="#DejaVuSans-5f" x="234.619141"/>
      <use xlink:href="#DejaVuSans-6c" x="284.619141"/>
      <use xlink:href="#DejaVuSans-69" x="312.402344"/>
      <use xlink:href="#DejaVuSans-67" x="340.185547"/>
      <use xlink:href="#DejaVuSans-68" x="403.662109"/>
      <use xlink:href="#DejaVuSans-74" x="467.041016"/>
      <use xlink:href="#DejaVuSans-5f" x="506.25"/>
      <use xlink:href="#DejaVuSans-54" x="556.25"/>
      <use xlink:href="#DejaVuSans-31" x="617.333984"/>
      <use xlink:href="#DejaVuSans-5f" x="680.957031"/>
      <use xlink:href="#DejaVuSans-32" x="730.957031"/>
     </g>
    </g>
    <g id="line2d_15">
     <path d="M 613.264792 315.455394 
L 621.264792 315.455394 
L 629.264792 315.455394 
" style="fill: none; stroke: #f0ad4e; stroke-linecap: square"/>
    </g>
    <g id="text_19">
     <!-- wt_2_light_T1_1 -->
     <g transform="translate(635.664792 318.255394) scale(0.08 -0.08)">
      <use xlink:href="#DejaVuSans-77"/>
      <use xlink:href="#DejaVuSans-74" x="81.787109"/>
      <use xlink:href="#DejaVuSans-5f" x="120.996094"/>
      <use xlink:href="#DejaVuSans-32" x="170.996094"/>
      <use xlink:href="#DejaVuSans-5f" x="234.619141"/>
      <use xlink:href="#DejaVuSans-6c" x="284.619141"/>
      <use xlink:href="#DejaVuSans-69" x="312.402344"/>
      <use xlink:href="#DejaVuSans-67" x="340.185547"/>
      <use xlink:href="#DejaVuSans-68" x="403.662109"/>
      <use xlink:href="#DejaVuSans-74" x="467.041016"/>
      <use xlink:href="#DejaVuSans-5f" x="506.25"/>
      <use xlink:href="#DejaVuSans-54" x="556.25"/>
      <use xlink:href="#DejaVuSans-31" x="617.333984"/>
      <use xlink:href="#DejaVuSans-5f" x="680.957031"/>
      <use xlink:href="#DejaVuSans-31" x="730.957031"/>
     </g>
    </g>
    <g id="line2d_16">
     <path d="M 892.178125 315.455394 
L 900.178125 315.455394 
L 908.178125 315.455394 
" style="fill: none; stroke: #d9534f; stroke-linecap: square"/>
    </g>
    <g id="text_20">
     <!-- wt_2_light_T1_2 -->
     <g transform="translate(914.578125 318.255394) scale(0.08 -0.08)">
      <use xlink:href="#DejaVuSans-77"/>
      <use xlink:href="#DejaVuSans-74" x="81.787109"/>
      <use xlink:href="#DejaVuSans-5f" x="120.996094"/>
      <use xlink:href="#DejaVuSans-32" x="170.996094"/>
      <use xlink:href="#DejaVuSans-5f" x="234.619141"/>
      <use xlink:href="#DejaVuSans-6c" x="284.619141"/>
      <use xlink:href="#DejaVuSans-69" x="312.402344"/>
      <use xlink:href="#DejaVuSans-67" x="340.185547"/>
      <use xlink:href="#DejaVuSans-68" x="403.662109"/>
      <use xlink:href="#DejaVuSans-74" x="467.041016"/>
      <use xlink:href="#DejaVuSans-5f" x="506.25"/>
      <use xlink:href="#DejaVuSans-54" x="556.25"/>
      <use xlink:href="#DejaVuSans-31" x="617.333984"/>
      <use xlink:href="#DejaVuSans-5f" x="680.957031"/>
      <use xlink:href="#DejaVuSans-32" x="730.957031"/>
     </g>
    </g>
   </g>
  </g>
 </g>
 <defs>
  <clipPath id="pd9ad70122a">
   <rect x="48.238125" y="31.48286" width="937.105" height="242.5072"/>
  </clipPath>
 </defs>
</svg>
